<?xml version="1.0" standalone="no"?>
<!DOCTYPE svg PUBLIC "-//W3C//DTD SVG 20010904//EN"
 "http://www.w3.org/TR/2001/REC-SVG-20010904/DTD/svg10.dtd">
<svg version="1.0" xmlns="http://www.w3.org/2000/svg"
 width="150" height="70" viewBox="0 0 1355.000000 589.000000"
 preserveAspectRatio="xMidYMid meet">

<g transform="translate(0.000000,589.000000) scale(0.100000,-0.100000)"
fill="#000000" stroke="none">
<path d="M8765 5310 c-4 -6 -11 -38 -15 -72 -5 -33 -13 -65 -18 -70 -5 -5 -43
-16 -83 -24 -176 -36 -323 -152 -358 -282 -7 -23 -13 -43 -14 -44 -1 -1 -281
-6 -622 -9 -1724 -20 -2330 -45 -3165 -135 -413 -44 -1069 -141 -1225 -180
-197 -50 -665 -200 -945 -302 -357 -131 -654 -269 -733 -341 -54 -50 -193
-119 -265 -132 -30 -6 -101 -33 -156 -61 -163 -81 -611 -354 -644 -393 -66
-74 -102 -198 -102 -350 0 -153 48 -305 116 -365 41 -35 517 -321 632 -379 45
-23 112 -48 148 -57 84 -19 216 -85 274 -136 81 -72 409 -224 750 -347 667
-241 931 -309 1525 -395 1034 -150 1918 -199 3794 -212 422 -3 608 -8 618 -15
7 -6 13 -20 13 -31 0 -55 84 -163 170 -218 51 -33 183 -80 223 -80 38 0 57
-22 66 -76 20 -133 131 -166 131 -40 0 103 -18 96 227 92 237 -4 227 -1 239
-70 7 -45 51 -106 75 -106 30 0 49 34 49 88 0 28 4 62 9 75 11 28 10 28 233
56 99 13 158 25 180 38 20 11 53 52 85 103 60 95 66 129 31 189 -24 42 -20 67
14 80 13 5 136 18 273 30 1230 106 2128 293 2575 537 137 75 142 88 145 349 2
172 6 209 24 265 25 77 27 167 6 236 -19 63 -19 187 0 250 10 32 15 91 15 169
0 78 -5 137 -15 169 -19 63 -19 187 0 250 22 71 19 171 -6 226 -28 62 -43 190
-29 252 10 51 5 139 -12 195 -13 44 -58 80 -164 135 -469 241 -1368 423 -2579
523 -104 9 -204 21 -222 26 -42 13 -50 41 -24 83 34 54 28 92 -31 185 -29 46
-64 92 -78 103 -18 13 -68 24 -180 38 -248 32 -231 27 -248 88 -10 37 -19 51
-28 48 -8 -3 -14 -1 -14 3 0 5 6 11 13 14 22 7 -13 37 -43 37 -35 0 -46 -14
-54 -70 -4 -25 -10 -51 -15 -58 -6 -10 -59 -14 -220 -17 -192 -4 -213 -2 -218
13 -3 9 -12 32 -20 51 -13 33 -14 33 -28 15 -13 -17 -14 -16 -4 15 9 26 9 35
-2 42 -19 12 -66 11 -74 -1z m583 -198 c25 -16 2 -42 -38 -42 l-37 0 -2 -90
-2 -90 25 0 c15 0 26 -4 26 -10 0 -5 -12 -10 -26 -10 -19 0 -25 -5 -22 -17 2
-13 16 -19 48 -23 l45 -5 -50 -10 -50 -9 45 -7 45 -6 -41 -1 -42 -2 0 -70 0
-70 44 0 c45 0 50 -4 34 -30 -12 -19 -190 -29 -190 -11 0 8 -6 9 -19 1 -11 -5
-58 -10 -105 -10 -74 0 -86 2 -86 17 0 13 -3 14 -12 5 -17 -17 -58 -15 -58 3
0 13 23 15 143 15 78 0 158 3 178 6 l37 6 0 60 c0 37 -6 64 -14 73 -11 10 -11
14 -1 18 6 3 -28 6 -76 8 -49 2 -91 1 -94 -3 -2 -5 22 -9 54 -9 38 -1 48 -4
28 -7 l-30 -5 30 -7 c24 -6 18 -8 -27 -9 l-58 -1 -1 -47 c-1 -27 -1 -54 0 -60
1 -7 -7 -13 -18 -13 -18 0 -20 8 -23 63 l-3 62 -60 0 c-56 0 -60 2 -69 28 -7
20 -7 34 2 48 7 11 10 24 7 29 -4 6 13 10 39 10 36 0 44 -3 40 -15 -4 -8 -1
-15 5 -15 6 0 11 7 11 15 0 8 6 15 13 15 11 0 14 21 14 88 0 80 1 87 21 90 18
3 20 -1 16 -40 -3 -24 -2 -65 2 -91 l6 -48 90 3 90 3 1 93 2 92 -45 1 c-25 1
-87 0 -139 -1 -69 -1 -96 1 -102 11 -6 11 -11 11 -21 1 -17 -17 -48 -15 -48 2
0 19 38 22 275 24 99 1 186 -2 193 -6z m-630 -24 c-4 -12 -26 -20 -123 -47
-66 -18 -167 -90 -194 -140 l-24 -44 23 -42 c30 -54 104 -106 143 -98 15 3 27
1 27 -5 0 -6 -10 -8 -22 -5 -22 4 -22 4 -5 -10 10 -9 52 -23 93 -32 64 -14 72
-18 60 -31 -13 -12 -23 -12 -76 0 -100 24 -200 92 -242 167 -12 21 -28 39 -35
39 -7 0 -13 7 -13 15 0 8 7 15 15 15 8 0 22 14 30 31 42 81 130 147 239 179
74 22 109 25 104 8z m52 -4 c0 -17 -22 -14 -28 4 -2 7 3 12 12 12 9 0 16 -7
16 -16z m892 -4 c73 -11 145 -20 161 -20 38 0 63 -29 82 -97 9 -32 23 -70 30
-85 11 -23 11 -27 -2 -32 -27 -11 -31 -7 -37 38 l-7 43 -61 2 c-82 2 -89 11
-10 11 34 0 62 3 62 8 0 4 -26 6 -57 4 -32 -2 -98 6 -148 17 l-90 20 65 1 c36
1 93 2 127 2 42 1 60 5 56 12 -4 6 1 5 10 -3 15 -12 17 -11 17 2 0 11 -13 17
-42 21 -326 40 -348 44 -348 62 0 19 31 18 192 -6z m-745 -26 c-3 -3 -12 -4
-19 -1 -8 3 -5 6 6 6 11 1 17 -2 13 -5z m-212 -14 c-3 -5 -23 -9 -43 -9 l-37
1 30 8 c44 11 57 11 50 0z m48 3 c-7 -2 -19 -2 -25 0 -7 3 -2 5 12 5 14 0 19
-2 13 -5z m897 -14 c28 -6 49 -13 46 -16 -9 -10 -135 -12 -141 -3 -4 6 -12 10
-18 10 -7 0 -6 -4 3 -10 9 -6 10 -10 3 -10 -22 0 -43 12 -43 26 0 17 76 19
150 3z m-160 -53 l0 -55 43 -3 c38 -3 42 -6 45 -32 4 -34 -26 -66 -63 -66 -25
0 -25 -1 -25 -80 0 -57 4 -80 13 -80 33 1 349 49 355 55 8 7 -87 -3 -198 -21
-117 -19 -164 -19 -156 2 3 9 6 20 6 25 0 5 80 10 183 11 l182 2 -145 6 c-80
3 -124 7 -99 8 26 1 63 9 82 17 46 19 57 19 57 0 0 -14 4 -14 31 1 17 9 42 14
55 11 19 -3 26 1 30 19 3 12 13 25 21 28 36 14 -14 -129 -51 -145 -23 -9 -335
-59 -373 -59 -19 0 -21 4 -15 23 4 12 7 104 7 204 0 101 3 183 8 183 4 0 7
-24 7 -54z m-899 35 c6 9 9 10 9 2 0 -6 -5 -15 -10 -18 -8 -5 -7 -11 0 -20 8
-9 8 -20 2 -32 -12 -22 -13 -73 -2 -73 9 0 4 -60 -8 -105 -7 -25 -14 -30 -45
-33 -22 -2 -46 4 -63 14 -24 16 -25 18 -8 25 11 3 35 4 55 1 22 -2 39 0 44 8
6 9 -10 11 -64 9 -55 -3 -74 0 -81 11 -17 27 -11 30 70 30 l80 0 0 30 c0 24
-4 30 -22 31 -22 1 -22 1 2 8 16 4 21 9 13 14 -13 8 -62 -1 -80 -15 -6 -5 -25
-8 -42 -6 -27 3 -28 5 -16 22 12 16 26 19 80 17 40 -1 65 2 65 8 0 6 -23 11
-52 11 l-53 1 24 19 c13 11 37 21 55 21 22 1 25 3 11 7 l-20 5 20 7 c11 4 22
3 24 -2 2 -6 7 -4 12 3z m1218 -7 c10 -9 -56 -3 -69 7 -11 7 -4 8 25 3 22 -4
42 -8 44 -10z m-236 -21 c-7 -2 -21 -2 -30 0 -10 3 -4 5 12 5 17 0 24 -2 18
-5z m-213 -103 c0 -13 -5 -18 -15 -14 -16 7 -19 17 -8 27 12 13 23 7 23 -13z
m-890 -20 c0 -16 -7 -20 -30 -20 -16 0 -30 2 -30 4 0 2 -3 11 -6 20 -5 13 1
16 30 16 29 0 36 -4 36 -20z m50 10 c0 -5 -8 -10 -17 -10 -15 0 -16 2 -3 10
19 12 20 12 20 0z m1465 0 c3 -5 1 -10 -4 -10 -6 0 -11 5 -11 10 0 6 2 10 4
10 3 0 8 -4 11 -10z m-1438 -26 c-3 -3 -12 -4 -19 -1 -8 3 -5 6 6 6 11 1 17
-2 13 -5z m203 -4 c0 -12 -47 -12 -75 0 -15 6 -8 9 28 9 26 1 47 -3 47 -9z
m1080 -20 c23 -7 24 -8 5 -15 -37 -13 -45 -14 -59 -9 -19 7 -9 34 13 33 9 -1
27 -4 41 -9z m-1092 -27 c-10 -2 -28 -2 -40 0 -13 2 -5 4 17 4 22 1 32 -1 23
-4z m-10 -20 c-10 -2 -28 -2 -40 0 -13 2 -5 4 17 4 22 1 32 -1 23 -4z m-1550
-30 c-21 -2 -55 -2 -75 0 -21 2 -4 4 37 4 41 0 58 -2 38 -4z m138 -9 c13 -11
15 -17 7 -20 -7 -3 -13 -12 -13 -20 0 -9 -11 -14 -35 -14 -28 0 -35 4 -35 19
0 11 10 27 22 35 28 20 30 20 54 0z m472 9 c-75 -2 -201 -2 -280 0 -79 1 -17
3 137 3 154 0 218 -2 143 -3z m400 0 c-21 -2 -55 -2 -75 0 -21 2 -4 4 37 4 41
0 58 -2 38 -4z m-1208 -12 c0 -5 -152 -9 -392 -10 -396 -1 -827 -13 -1103 -31
-82 -6 -190 -13 -240 -16 -289 -18 -720 -59 -995 -94 -286 -36 -337 -43 -505
-70 -33 -6 -105 -17 -160 -25 -156 -22 -348 -63 -428 -89 -39 -14 -166 -53
-280 -86 -115 -34 -250 -77 -300 -95 -543 -197 -527 -190 -729 -291 -93 -47
-175 -83 -181 -81 -7 2 71 45 172 96 133 67 260 120 460 192 152 55 299 109
326 119 109 42 656 199 745 215 52 9 159 27 238 40 589 101 1457 186 2202 215
493 19 1170 26 1170 11z m1047 -8 c4 -9 1 -19 -5 -21 -7 -2 -10 -8 -6 -13 3
-5 -13 -9 -35 -9 -34 0 -39 3 -34 18 14 40 68 57 80 25z m720 -49 c-3 -3 -12
-4 -19 -1 -8 3 -5 6 6 6 11 1 17 -2 13 -5z m1505 -29 c415 -35 1142 -122 1110
-133 -8 -2 -62 3 -120 12 -142 21 -691 81 -917 101 -203 17 -323 32 -283 34
15 0 109 -6 210 -14z m-1482 -16 c0 -15 -4 -19 -16 -15 -9 3 -20 6 -25 6 -5 0
-9 7 -9 15 0 9 9 15 25 15 19 0 25 -5 25 -21z m38 -96 c1 -10 3 -45 4 -78 2
-48 0 -60 -12 -60 -12 0 -15 14 -16 60 0 50 9 95 19 95 2 0 4 -8 5 -17z m589
0 c1 -10 3 -41 6 -69 5 -56 -3 -81 -23 -69 -17 11 -4 155 13 155 2 0 3 -8 4
-17z m-2052 -23 c3 -5 1 -10 -4 -10 -6 0 -11 5 -11 10 0 6 2 10 4 10 3 0 8 -4
11 -10z m-128 -22 c-3 -8 -6 -5 -6 6 -1 11 2 17 5 13 3 -3 4 -12 1 -19z m216
-37 c-4 -7 -34 21 -45 43 -7 14 -2 11 18 -9 16 -16 28 -32 27 -34z m158 32
c-12 -20 -14 -14 -5 12 4 9 9 14 11 11 3 -2 0 -13 -6 -23z m175 -65 c5 -8 1
-5 -8 5 -11 12 -18 33 -17 56 l2 36 6 -42 c4 -23 11 -47 17 -55z m73 47 c0 -5
-4 -3 -9 5 -5 8 -9 22 -9 30 0 16 17 -16 18 -35z m188 23 c-3 -8 -6 -5 -6 6
-1 11 2 17 5 13 3 -3 4 -12 1 -19z m3396 15 c-7 -2 -21 -2 -30 0 -10 3 -4 5
12 5 17 0 24 -2 18 -5z m-3436 -35 c-3 -7 -5 -2 -5 12 0 14 2 19 5 13 2 -7 2
-19 0 -25z m3633 5 c52 -9 90 -18 84 -20 -14 -5 -256 36 -264 44 -6 6 39 0
180 -24z m-3789 -55 c12 -10 17 -18 11 -18 -15 0 -62 59 -62 78 0 10 6 5 15
-13 9 -16 25 -38 36 -47z m-501 30 l23 -33 -26 24 c-15 14 -27 28 -27 33 0 14
5 9 30 -24z m68 -19 c11 0 13 -2 4 -6 -14 -6 -52 24 -52 41 0 6 7 0 16 -12 8
-12 23 -22 32 -23z m-158 10 c0 -6 -4 -7 -10 -4 -5 3 -10 11 -10 16 0 6 5 7
10 4 6 -3 10 -11 10 -16z m316 6 c-11 -8 -25 -15 -30 -15 -6 0 -2 7 8 15 11 8
25 15 30 15 6 0 2 -7 -8 -15z m2714 -3 c0 14 5 15 31 8 17 -5 36 -8 42 -7 14
3 33 -61 21 -73 -5 -5 -44 -15 -86 -23 l-77 -14 -5 26 c-4 22 -3 51 3 83 2 14
47 13 59 -1 10 -13 12 -13 12 1z m-2760 -8 c0 -2 -11 -4 -25 -4 -14 0 -25 4
-25 9 0 4 11 6 25 3 14 -2 25 -6 25 -8z m462 -6 c-7 -7 -12 -8 -12 -2 0 14 12
26 19 19 2 -3 -1 -11 -7 -17z m3823 12 c27 -7 27 -8 5 -8 -14 0 -38 4 -55 8
-27 7 -27 8 -5 8 14 0 39 -4 55 -8z m-1365 -14 c0 -3 -4 -8 -10 -11 -5 -3 -10
-1 -10 4 0 6 5 11 10 11 6 0 10 -2 10 -4z m1427 -2 c-3 -3 -12 -4 -19 -1 -8 3
-5 6 6 6 11 1 17 -2 13 -5z m-3767 -14 c0 -5 -5 -10 -11 -10 -5 0 -7 5 -4 10
3 6 8 10 11 10 2 0 4 -4 4 -10z m3863 -7 c-7 -2 -19 -2 -25 0 -7 3 -2 5 12 5
14 0 19 -2 13 -5z m100 -19 c93 -21 417 -113 437 -125 26 -15 -5 -10 -66 12
-32 11 -84 26 -114 34 -274 69 -367 95 -336 95 4 0 39 -7 79 -16z m-2413 -64
c8 -5 11 -10 5 -10 -5 0 -17 5 -25 10 -8 5 -10 10 -5 10 6 0 17 -5 25 -10z
m777 -2 c6 -7 14 -35 18 -63 13 -91 15 -87 -40 -101 -62 -16 -75 -7 -75 52 0
24 -4 44 -10 44 -5 0 -10 -6 -10 -12 -1 -23 -12 -93 -16 -97 -1 -2 -20 1 -41
6 -36 9 -38 11 -38 48 0 22 -4 43 -10 47 -6 5 -4 8 5 8 13 0 13 1 0 10 -11 7
-11 10 -2 10 7 0 10 5 7 10 -3 6 0 10 7 10 9 0 9 3 -2 10 -20 13 29 14 64 0
18 -6 33 -5 56 6 17 9 40 14 51 11 10 -3 17 -1 13 4 -8 14 12 11 23 -3z
m-1583 -104 c41 4 56 3 46 -4 -39 -25 -190 -1 -190 30 0 6 19 1 42 -11 35 -18
52 -20 102 -15z m555 -5 l46 -6 -43 -2 c-46 -1 -116 25 -106 40 3 5 17 1 31
-8 15 -10 47 -20 72 -24z m3201 9 c10 -6 7 -7 -10 -2 -14 3 -32 11 -40 16 -10
6 -7 7 10 2 14 -3 32 -11 40 -16z m-1644 -4 c-9 -8 -16 -20 -16 -26 0 -6 -3
-9 -6 -5 -10 10 7 47 22 47 13 0 13 -2 0 -16z m68 3 c4 4 4 -1 0 -10 -3 -10
-7 -17 -8 -15 -1 2 -8 12 -16 23 -14 18 -13 19 1 8 9 -7 19 -10 23 -6z m-1544
-7 c-20 -13 -33 -13 -25 0 3 6 14 10 23 10 15 0 15 -2 2 -10z m1701 -10 c12 0
15 -7 11 -27 -4 -21 -2 -25 12 -20 10 4 16 1 16 -7 0 -17 -28 -41 -37 -32 -3
3 -1 6 5 6 7 0 12 5 12 10 0 6 -7 10 -16 10 -9 0 -14 6 -12 12 6 17 -11 33
-45 42 -19 4 -27 2 -28 -6 0 -10 -2 -9 -6 1 -4 10 -7 10 -13 1 -5 -8 -9 -7
-14 5 -6 15 0 17 46 11 29 -3 60 -6 69 -6z m1474 0 c13 -6 15 -9 5 -9 -8 0
-22 4 -30 9 -18 12 -2 12 25 0z m-1701 -39 c4 -5 0 -12 -6 -14 -8 -3 -6 -6 5
-6 9 -1 17 4 17 9 0 6 6 10 13 10 6 -1 0 -11 -15 -23 -16 -13 -28 -29 -28 -37
0 -10 -3 -11 -11 -3 -7 7 -8 20 -3 34 4 13 7 27 6 32 -3 10 16 9 22 -2z m153
-16 c12 -27 5 -31 -32 -15 -17 7 -17 9 -2 9 9 1 17 6 17 12 0 5 -5 7 -12 3 -7
-4 -8 -3 -4 4 11 18 20 14 33 -13z m-8149 -50 c8 -17 8 -26 1 -31 -14 -9 -53
31 -45 45 12 19 32 12 44 -14z m8035 -6 c6 -4 5 -13 -2 -25 -10 -19 -10 -19
-11 0 0 10 -8 25 -17 33 -10 8 -12 12 -5 8 6 -3 12 0 13 7 0 9 2 8 6 -2 3 -8
10 -18 16 -21z m529 -1 c-7 -7 -12 -8 -12 -2 0 14 12 26 19 19 2 -3 -1 -11 -7
-17z m-8632 -20 l20 -33 -27 -22 c-29 -24 -53 -30 -53 -14 0 6 -11 22 -25 37
-37 40 -30 48 16 19 l40 -26 -7 36 c-8 45 9 46 36 3z m8037 -10 c-3 -8 -6 -5
-6 6 -1 11 2 17 5 13 3 -3 4 -12 1 -19z m1143 -3 c0 -8 -2 -15 -4 -15 -2 0 -6
7 -10 15 -3 8 -1 15 4 15 6 0 10 -7 10 -15z m-9279 -52 c18 -29 19 -37 8 -44
-22 -14 -33 -10 -52 16 -20 28 -15 47 10 38 11 -5 14 -3 9 6 -5 7 -16 11 -26
8 -11 -3 -21 1 -24 8 -6 17 24 25 41 12 7 -5 22 -25 34 -44z m7246 5 c-2 -13
-4 -5 -4 17 -1 22 1 32 4 23 2 -10 2 -28 0 -40z m1867 17 c-7 -16 -24 -21 -24
-6 0 8 7 13 27 20 1 1 0 -6 -3 -14z m83 -7 c-3 -8 -6 -5 -6 6 -1 11 2 17 5 13
3 -3 4 -12 1 -19z m557 -54 c9 -36 50 -74 81 -74 14 0 25 -5 25 -11 0 -7 -10
-9 -27 -4 -16 4 -38 7 -49 8 -13 1 -19 7 -17 15 3 6 -1 12 -9 12 -7 0 -14 8
-15 18 -1 9 -4 27 -8 40 -4 13 -3 22 3 22 5 0 13 -12 16 -26z m-534 6 c0 -5
-5 -10 -11 -10 -5 0 -7 5 -4 10 3 6 8 10 11 10 2 0 4 -4 4 -10z m-28 -52 c-2
-10 -9 -18 -14 -18 -6 0 -7 7 -4 16 3 9 6 25 7 37 0 21 1 21 8 2 4 -11 6 -28
3 -37z m753 -11 c1 -28 -13 -35 -32 -16 -9 9 -9 16 0 30 16 26 32 18 32 -14z
m-768 -49 c-3 -8 -6 -5 -6 6 -1 11 2 17 5 13 3 -3 4 -12 1 -19z m818 -8 c-3
-5 -13 -10 -21 -10 -8 0 -14 5 -14 10 0 6 9 10 21 10 11 0 17 -4 14 -10z
m-115 -36 c0 -8 7 -14 16 -14 12 0 14 -7 9 -31 -7 -30 -6 -31 19 -25 22 5 27
2 33 -21 10 -40 10 -40 12 -73 1 -19 6 -30 16 -30 28 0 15 -26 -17 -35 -18 -6
-31 -14 -28 -20 3 -5 8 -9 13 -8 4 2 7 -4 7 -13 0 -9 -9 -18 -20 -21 -29 -8
-24 -20 10 -27 28 -5 30 -8 20 -26 -6 -12 -22 -25 -36 -30 -14 -6 -22 -15 -19
-21 4 -6 13 -8 21 -5 16 6 17 4 8 -18 -4 -10 -18 -16 -35 -16 -24 0 -29 4 -29
25 0 23 -2 25 -22 14 -18 -10 -24 -8 -39 12 -10 13 -24 37 -30 52 -16 38 -1
51 56 52 43 0 49 5 46 33 -2 15 38 32 58 24 9 -3 12 -1 7 6 -4 7 -14 12 -22
12 -8 0 -27 12 -41 28 l-25 27 16 -27 c20 -34 20 -44 1 -28 -13 11 -15 9 -13
-16 5 -46 -16 -43 -32 5 -11 33 -12 45 -3 48 8 3 5 11 -8 24 -10 10 -19 25
-18 32 0 7 2 8 5 1 2 -6 18 -9 34 -6 20 3 27 8 23 19 -4 9 -8 11 -12 4 -5 -7
-14 -6 -28 4 -16 11 -21 23 -18 46 7 49 65 88 65 43z m274 -51 c15 -109 17
-133 8 -133 -5 0 -13 21 -16 48 -4 26 -9 64 -12 85 -3 22 -2 37 4 37 6 0 13
-17 16 -37z m-11389 -50 c-37 -28 -157 -84 -153 -72 5 14 160 100 168 93 3 -3
-4 -12 -15 -21z m11258 2 c-3 -8 -9 -15 -14 -15 -10 0 -12 24 -3 33 11 11 24
-3 17 -18z m10 -45 c3 -11 1 -18 -4 -14 -5 3 -9 12 -9 20 0 20 7 17 13 -6z
m-11537 -28 c-3 -5 -49 -30 -103 -57 -54 -27 -138 -73 -188 -103 -49 -30 -157
-95 -240 -144 -82 -50 -159 -98 -169 -107 -10 -9 -31 -43 -47 -76 -15 -33 -28
-52 -28 -42 -1 25 43 108 71 134 57 52 694 420 706 408 2 -2 2 -8 -2 -13z
m8849 -42 c-3 -5 -30 -10 -60 -10 -30 0 -57 5 -60 10 -4 6 18 10 60 10 42 0
64 -4 60 -10z m530 0 c-3 -5 -31 -10 -61 -10 -30 0 -54 5 -54 10 0 6 27 10 61
10 37 0 58 -4 54 -10z m-7243 -35 c-2 -19 -6 -35 -8 -35 -2 0 -4 16 -4 35 0
19 4 35 8 35 4 0 6 -16 4 -35z m-191 14 c-61 -5 -111 -4 -120 1 -10 6 28 9
104 8 l120 -1 -104 -8z m7229 1 c-14 -4 -63 -8 -110 -8 -47 0 -96 4 -110 8
-15 5 28 8 110 8 82 0 125 -3 110 -8z m2340 -5 c0 -12 -29 -75 -35 -75 -5 0 0
35 11 68 3 12 24 18 24 7z m-7022 -52 c-32 -2 -84 -2 -115 0 -32 2 -6 3 57 3
63 0 89 -1 58 -3z m7210 0 c-16 -2 -40 -2 -55 0 -16 2 -3 4 27 4 30 0 43 -2
28 -4z m-202 -60 c-14 -26 -25 -45 -26 -41 -1 14 41 101 46 95 3 -3 -6 -27
-20 -54z m-10977 -5 c20 -91 38 -218 32 -222 -3 -2 -55 -11 -116 -20 -175 -26
-298 -46 -324 -52 l-23 -5 3 146 c2 80 4 145 4 146 0 3 348 57 376 58 35 1 36
0 48 -51z m633 -32 c7 4 8 2 4 -4 -12 -20 -26 -13 -25 11 1 17 2 18 6 4 2 -9
9 -14 15 -11z m10396 15 c11 -7 11 -9 -2 -14 -22 -9 -20 -26 5 -35 18 -7 19
-10 6 -21 -36 -29 -78 34 -45 67 14 14 19 15 36 3z m-11537 -106 c-3 -13 -8
-2 -14 29 -4 27 -5 56 -1 65 9 19 22 -63 15 -94z m860 -13 c-16 -5 -41 5 -41
17 0 7 10 6 26 -1 15 -7 21 -14 15 -16z m10816 -82 c1 -45 -2 -80 -8 -80 -5 0
-9 39 -9 87 0 107 13 101 17 -7z m-9987 30 c0 -5 -4 -10 -10 -10 -5 0 -10 5
-10 10 0 6 5 10 10 10 6 0 10 -4 10 -10z m4580 -124 c0 -3 -4 -8 -10 -11 -5
-3 -10 -1 -10 4 0 6 5 11 10 11 6 0 10 -2 10 -4z m4120 -6 c0 -5 -4 -10 -8
-10 -12 0 -92 -81 -92 -94 -1 -15 -39 -94 -40 -80 0 21 32 104 41 104 5 0 9 5
9 12 0 16 41 58 57 58 7 0 13 5 13 10 0 6 5 10 10 10 6 0 10 -4 10 -10z
m-4189 -58 c-23 -26 -41 -55 -41 -63 -1 -8 -7 -25 -15 -39 -12 -21 -14 -22
-15 -6 0 29 37 101 71 137 46 49 46 26 0 -29z m-6271 25 c30 -15 92 -95 84
-108 -4 -7 -75 -8 -193 -3 -185 7 -281 1 -281 -16 0 -5 8 -11 18 -13 9 -2 -1
-2 -23 0 -26 3 -35 1 -27 -5 10 -7 7 -11 -12 -14 -28 -6 -45 6 -24 16 7 3 -9
3 -36 -1 -33 -4 -47 -2 -42 5 3 6 2 13 -3 16 -12 8 -8 45 10 84 10 23 21 32
39 33 83 5 345 16 400 17 36 1 76 -4 90 -11z m4672 -37 c-2 -22 -6 -40 -8 -40
-2 0 -4 18 -4 40 0 22 3 40 8 40 4 0 6 -18 4 -40z m1638 -12 c-12 -11 -27 -34
-32 -50 -7 -18 -14 -26 -20 -20 -11 11 25 79 51 98 25 19 27 -4 1 -28z m4150
34 c0 -5 -10 -17 -21 -28 -12 -10 -28 -34 -36 -51 -7 -18 -18 -33 -23 -33 -13
0 -13 1 6 41 26 54 74 99 74 71z m-9512 -34 c-8 -13 -21 -41 -28 -63 -7 -22
-15 -34 -17 -28 -6 17 16 81 35 104 21 25 28 15 10 -13z m-1677 -9 c-5 -13
-10 -19 -10 -12 -1 15 10 45 15 40 3 -2 0 -15 -5 -28z m1709 -33 c-6 -20 -16
-36 -21 -36 -13 0 -11 12 7 49 21 41 30 33 14 -13z m10762 31 c-31 -7 -46 -7
-54 1 -9 9 1 12 43 11 l54 -1 -43 -11z m-10052 -37 c0 -5 -4 -10 -10 -10 -5 0
-10 5 -10 10 0 6 5 10 10 10 6 0 10 -4 10 -10z m7755 0 c-8 -13 -105 -13 -125
0 -10 7 7 10 58 10 46 0 71 -4 67 -10z m-9567 -45 c4 -4 -10 -5 -31 -1 -43 8
-72 -3 -41 -15 16 -6 15 -8 -8 -8 -25 -1 -27 2 -19 37 2 7 91 -5 99 -13z
m4549 -32 c-3 -10 -5 -2 -5 17 0 19 2 27 5 18 2 -10 2 -26 0 -35z m-4773 11
c24 -9 19 -34 -6 -33 -22 0 -22 1 -3 9 19 8 19 9 -2 9 -12 1 -25 6 -28 11 -7
11 15 13 39 4z m4803 -16 c-3 -8 -6 -5 -6 6 -1 11 2 17 5 13 3 -3 4 -12 1 -19z
m-4874 -5 c-7 -2 -19 -2 -25 0 -7 3 -2 5 12 5 14 0 19 -2 13 -5z m326 -9 c2
-2 -12 -4 -31 -4 -20 0 -38 -6 -40 -12 -3 -9 -9 -8 -21 4 -12 12 -13 18 -5 20
14 5 91 -1 97 -8z m408 -181 c-20 -2 -52 -2 -70 0 -17 2 0 4 38 4 39 0 53 -2
32 -4z m151 0 c-10 -2 -28 -2 -40 0 -13 2 -5 4 17 4 22 1 32 -1 23 -4z m11278
-78 c1 -41 -2 -77 -7 -80 -5 -4 -9 30 -9 81 0 105 13 104 16 -1z m-11278 33
c-1 -22 -7 -30 -32 -38 l-31 -10 33 3 c25 3 32 0 32 -15 0 -10 -3 -18 -7 -17
-5 1 -18 -2 -30 -6 -17 -5 -23 -15 -23 -36 0 -24 4 -29 24 -29 29 0 46 -19 19
-21 -17 -1 -17 -2 0 -6 9 -2 17 -9 17 -14 0 -5 -8 -10 -17 -10 -17 -1 -17 -2
0 -6 31 -8 18 -28 -18 -29 -25 -1 -33 2 -25 10 13 13 13 26 -1 26 -5 0 -7 -4
-4 -10 4 -6 -6 -10 -22 -10 -19 0 -24 -3 -14 -9 8 -5 -15 -8 -59 -8 l-72 0 38
18 39 18 -67 1 -68 0 0 30 c0 27 3 30 33 32 l32 1 -32 4 c-32 4 -33 6 -33 48
l0 44 42 3 c55 4 59 23 7 34 -23 5 -44 14 -46 21 -3 9 32 11 141 10 l145 -2
-1 -27z m29 -60 c-2 -18 -4 -4 -4 32 0 36 2 50 4 33 2 -18 2 -48 0 -65z m907
-58 c65 -104 65 -105 44 -120 -19 -14 -82 -51 -300 -178 l-87 -51 -31 54 c-30
52 -30 54 -13 76 29 35 76 93 91 111 11 14 10 19 -8 36 -12 11 -23 33 -25 49
-4 34 -3 35 127 100 48 24 90 49 94 55 10 16 37 -17 108 -132z m9961 120 c-3
-5 -13 -10 -21 -10 -8 0 -14 5 -14 10 0 6 9 10 21 10 11 0 17 -4 14 -10z
m-9605 -90 c0 -5 -5 -10 -11 -10 -5 0 -7 5 -4 10 3 6 8 10 11 10 2 0 4 -4 4
-10z m-1293 -37 c-3 -10 -5 -4 -5 12 0 17 2 24 5 18 2 -7 2 -21 0 -30z m-297
-8 c0 -8 -4 -17 -10 -20 -6 -4 -10 5 -10 20 0 15 4 24 10 20 6 -3 10 -12 10
-20z m327 -107 c-2 -18 -4 -4 -4 32 0 36 2 50 4 33 2 -18 2 -48 0 -65z m11282
18 c-8 -8 -88 -10 -95 -3 -4 4 17 7 46 7 29 0 51 -2 49 -4z m-11475 -34 c6
-10 -112 -7 -122 2 -3 3 22 6 56 6 33 0 63 -4 66 -8z m160 -2 c-6 -6 -21 -6
-39 -1 -30 9 -30 9 10 10 25 1 36 -2 29 -9z m1216 -4 c0 -3 -4 -8 -10 -11 -5
-3 -10 -1 -10 4 0 6 5 11 10 11 6 0 10 -2 10 -4z m7237 -3 c-8 -7 -119 -5
-126 3 -2 2 26 4 64 4 38 0 65 -3 62 -7z m523 -3 c0 -6 -26 -10 -59 -10 -33 0
-63 5 -66 10 -4 6 18 10 59 10 37 0 66 -4 66 -10z m-9032 -17 c-42 -2 -114 -2
-160 0 -46 1 -11 3 77 3 88 0 125 -2 83 -3z m1701 3 c-7 -7 -219 -9 -226 -2
-4 3 47 6 112 6 65 0 116 -2 114 -4z m7139 -1 c-7 -7 -249 -7 -256 0 -3 3 55
5 128 5 73 0 131 -2 128 -5z m588 -28 c-11 -8 -16 -18 -13 -24 3 -5 0 -10 -8
-10 -7 0 -15 10 -17 22 -4 17 1 21 26 23 28 3 29 2 12 -11z m-8179 -59 c-2
-13 -4 -5 -4 17 -1 22 1 32 4 23 2 -10 2 -28 0 -40z m540 20 c-3 -8 -6 -5 -6
6 -1 11 2 17 5 13 3 -3 4 -12 1 -19z m7973 -40 c0 -9 4 -8 10 2 8 12 10 10 10
-8 0 -13 4 -20 10 -17 6 4 8 11 5 16 -4 5 -1 9 4 9 15 0 14 -23 -1 -39 -11
-10 -10 -11 5 -6 14 6 17 2 17 -23 0 -16 3 -50 6 -76 6 -42 5 -46 -14 -46 -11
0 -23 6 -25 13 -3 6 -6 2 -6 -10 -1 -15 3 -21 13 -17 11 4 13 0 9 -14 -3 -14
1 -22 16 -27 14 -4 22 -18 26 -43 3 -20 8 -52 11 -69 3 -21 1 -33 -7 -33 -6 0
-8 -7 -5 -16 3 -8 2 -13 -3 -10 -5 3 -14 0 -20 -8 -7 -8 -21 -12 -31 -9 -14 4
-20 0 -20 -11 0 -10 -8 -16 -22 -16 -21 1 -21 2 -5 11 9 5 17 15 17 22 0 8 -3
8 -9 -2 -6 -9 -10 -10 -16 -2 -5 9 -12 7 -23 -6 -11 -12 -30 -18 -54 -17 -21
1 -38 -3 -38 -9 0 -6 -19 -8 -45 -5 -24 3 -42 2 -39 -3 3 -5 0 -9 -5 -9 -6 0
-11 4 -11 9 0 22 -35 21 -53 0 -15 -19 -20 -21 -28 -8 -8 12 -11 11 -20 -3
-11 -19 -59 -25 -59 -8 0 6 -4 10 -10 10 -5 0 -7 -6 -4 -14 4 -11 -5 -13 -45
-9 -44 4 -50 2 -45 -11 3 -9 1 -16 -5 -16 -6 0 -11 5 -11 10 0 6 -5 10 -11 10
-5 0 -7 -4 -4 -10 3 -5 1 -10 -5 -10 -7 0 -9 8 -5 20 7 22 -10 28 -19 8 -3 -7
-3 -3 0 10 3 12 1 22 -5 22 -14 0 -14 37 -1 45 14 9 12 26 -2 23 -7 -2 -15 14
-18 40 -4 27 -2 42 4 43 6 0 5 3 -1 6 -7 2 -13 9 -13 15 0 6 6 8 14 5 9 -4 14
3 14 20 0 17 -7 27 -19 30 -21 6 -26 43 -6 43 9 0 9 2 0 8 -17 11 -27 59 -13
67 8 5 8 11 -1 21 -10 12 -9 13 7 7 16 -6 17 -5 6 9 -18 23 -4 29 78 33 60 3
72 0 83 -16 8 -10 16 -17 19 -14 3 3 11 -1 17 -9 10 -12 3 -16 -44 -21 -31 -4
-59 -5 -62 -1 -4 3 1 6 10 6 9 0 15 8 14 19 -1 16 -5 18 -19 10 -11 -6 -18 -6
-18 0 0 5 6 12 13 14 7 3 4 6 -7 6 -16 1 -17 -4 -12 -34 6 -29 4 -35 -10 -35
-14 0 -16 -7 -10 -52 4 -29 14 -100 21 -157 8 -57 16 -106 19 -109 3 -3 63 5
133 16 71 12 180 26 243 32 157 16 159 16 155 48 -33 276 -34 280 -43 286 -4
2 -47 -2 -97 -9 -160 -23 -186 -25 -180 -16 11 19 64 40 69 27 2 -6 5 -4 5 5
1 18 31 35 31 17 0 -7 5 -6 15 2 8 6 20 8 26 4 8 -5 11 -2 7 7 -5 12 6 14 61
13 36 -1 56 1 44 3 -33 6 -28 23 7 23 17 0 30 -5 30 -12z m1556 -123 c-5 -47
-14 -85 -19 -85 -9 0 -1 146 10 163 14 23 17 -3 9 -78z m-10920 60 c-3 -8 0
-15 6 -15 6 0 9 -3 5 -6 -3 -4 -14 -4 -23 0 -13 5 -14 9 -4 21 16 19 24 19 16
0z m9952 -2 c-10 -2 -28 -2 -40 0 -13 2 -5 4 17 4 22 1 32 -1 23 -4z m69 1
c-3 -3 -12 -4 -19 -1 -8 3 -5 6 6 6 11 1 17 -2 13 -5z m106 -1 c-18 -2 -48 -2
-65 0 -18 2 -4 4 32 4 36 0 50 -2 33 -4z m64 1 c-3 -3 -12 -4 -19 -1 -8 3 -5
6 6 6 11 1 17 -2 13 -5z m-214 -31 c-13 -2 -35 -2 -50 0 -16 2 -5 4 22 4 28 0
40 -2 28 -4z m70 0 c-7 -2 -19 -2 -25 0 -7 3 -2 5 12 5 14 0 19 -2 13 -5z
m114 0 c-20 -2 -52 -2 -70 0 -17 2 0 4 38 4 39 0 53 -2 32 -4z m-10627 -101
c0 -15 -162 70 -168 88 -2 6 35 -8 82 -32 47 -23 86 -48 86 -56z m8767 79 c0
-11 -5 -18 -9 -15 -4 3 -5 11 -1 19 7 21 12 19 10 -4z m1881 2 c-10 -2 -26 -2
-35 0 -10 3 -2 5 17 5 19 0 27 -2 18 -5z m-301 -70 c-2 -16 -4 -5 -4 22 0 28
2 40 4 28 2 -13 2 -35 0 -50z m78 51 c-15 -11 -16 -14 -3 -14 8 0 21 6 27 14
8 10 33 14 72 15 52 0 59 -2 49 -15 -13 -15 -9 -16 55 -18 25 -1 31 -6 33 -28
3 -27 2 -28 -50 -30 l-53 -2 53 -3 c44 -3 52 -7 52 -24 0 -15 -8 -19 -42 -21
l-43 -1 43 -4 c34 -3 42 -8 42 -24 0 -14 -7 -19 -30 -20 -49 -2 -53 -3 -57
-15 -4 -12 54 -37 67 -29 4 3 10 -2 14 -10 5 -13 -15 -15 -138 -15 l-143 0 -1
30 c-1 28 2 30 41 32 l42 1 -42 4 c-29 3 -43 9 -43 18 0 16 23 23 83 27 36 3
37 4 16 16 -11 8 -18 9 -14 3 3 -6 -1 -11 -9 -11 -10 0 -16 9 -16 24 0 19 -7
26 -30 31 -23 5 -30 12 -30 31 0 16 6 24 18 25 16 1 16 2 0 6 -31 8 -19 21 19
21 35 0 36 -1 18 -14z m523 -41 c56 -9 102 -19 102 -23 0 -4 46 -11 101 -15
l101 -7 -6 -40 c-12 -74 -17 -78 -104 -78 -46 0 -83 5 -90 12 -8 8 -15 8 -24
1 -17 -14 -207 -10 -234 5 -18 9 -21 22 -23 78 -3 94 2 96 177 67z m-2281 -13
c-5 -31 -17 -37 -33 -16 -20 28 -18 36 11 36 19 0 24 -5 22 -20z m-8540 -6
c-3 -3 -12 -4 -19 -1 -8 3 -5 6 6 6 11 1 17 -2 13 -5z m10560 -46 c-2 -13 -4
-5 -4 17 -1 22 1 32 4 23 2 -10 2 -28 0 -40z m-310 -10 c-3 -7 -5 -2 -5 12 0
14 2 19 5 13 2 -7 2 -19 0 -25z m-30 -110 c-2 -18 -4 -4 -4 32 0 36 2 50 4 33
2 -18 2 -48 0 -65z m1031 55 c-16 -2 -40 -2 -55 0 -16 2 -3 4 27 4 30 0 43 -2
28 -4z m-10448 -32 c0 -13 -70 -81 -83 -81 -6 0 9 20 33 45 47 48 50 50 50 36z
m-485 -19 c-3 -3 -11 0 -18 7 -9 10 -8 11 6 5 10 -3 15 -9 12 -12z m10385 -12
c0 -5 -4 -10 -10 -10 -5 0 -10 5 -10 10 0 6 5 10 10 10 6 0 10 -4 10 -10z
m250 -5 c0 -9 -6 -12 -15 -9 -8 4 -15 10 -15 15 0 5 7 9 15 9 8 0 15 -7 15
-15z m-10523 -31 c-3 -3 -12 -4 -19 -1 -8 3 -5 6 6 6 11 1 17 -2 13 -5z m7910
-46 c-2 -13 -4 -5 -4 17 -1 22 1 32 4 23 2 -10 2 -28 0 -40z m1956 45 c-13 -2
-33 -2 -45 0 -13 2 -3 4 22 4 25 0 35 -2 23 -4z m130 0 c-7 -2 -19 -2 -25 0
-7 3 -2 5 12 5 14 0 19 -2 13 -5z m-643 -33 c0 -5 -2 -10 -4 -10 -3 0 -8 5
-11 10 -3 6 -1 10 4 10 6 0 11 -4 11 -10z m1379 -14 c-16 -13 -253 -122 -320
-147 -325 -122 -762 -222 -1329 -305 -253 -36 -309 -43 -565 -69 -82 -8 -190
-20 -240 -25 -129 -15 -507 -41 -512 -36 -6 6 55 14 152 21 281 21 548 47 910
91 794 96 1457 257 1810 442 50 26 92 43 94 39 1 -5 1 -10 0 -11z m-399 -41
c0 -14 -4 -25 -10 -25 -5 0 -10 11 -10 25 0 14 5 25 10 25 6 0 10 -11 10 -25z
m30 -20 c0 -8 -4 -15 -10 -15 -5 0 -10 7 -10 15 0 8 5 15 10 15 6 0 10 -7 10
-15z m-65 -14 c6 -10 -25 -31 -44 -31 -15 0 -14 27 2 33 20 9 35 8 42 -2z
m-9920 -11 c13 -6 15 -9 5 -9 -8 0 -22 4 -30 9 -18 12 -2 12 25 0z m62 -26
c-3 -3 -12 -4 -19 -1 -8 3 -5 6 6 6 11 1 17 -2 13 -5z m9413 -34 c0 -5 13 -7
30 -4 22 5 31 2 36 -11 4 -10 1 -21 -7 -26 -22 -14 -39 -10 -40 9 0 11 -2 12
-6 4 -3 -7 0 -19 7 -27 9 -11 7 -16 -11 -25 -17 -10 -20 -9 -13 2 5 8 1 8 -12
-3 -20 -16 -54 -15 -54 2 0 17 32 59 41 53 5 -3 9 4 9 15 0 12 5 21 10 21 6 0
10 -4 10 -10z m128 -7 c-4 -22 -48 -31 -48 -10 0 19 10 27 32 27 13 0 18 -6
16 -17z m-9341 -29 c-3 -3 -12 -4 -19 -1 -8 3 -5 6 6 6 11 1 17 -2 13 -5z m68
-19 l30 -14 -30 6 c-16 3 -37 9 -45 14 -27 15 11 10 45 -6z m6001 -3 c-3 -5
-19 -9 -35 -10 -16 0 -43 -8 -61 -17 -17 -9 -36 -15 -42 -13 -19 7 75 47 110
48 18 0 31 -4 28 -8z m599 -3 c-4 -6 -14 -8 -22 -5 -8 3 -37 -4 -64 -15 -62
-27 -78 -17 -18 11 47 21 115 27 104 9z m-545 -9 c12 -8 11 -10 -7 -10 -13 0
-23 5 -23 10 0 13 11 13 30 0z m595 0 c3 -5 -1 -10 -9 -10 -8 0 -18 5 -21 10
-3 6 1 10 9 10 8 0 18 -4 21 -10z m-6548 -15 c19 -8 44 -15 54 -15 10 0 20 -4
23 -9 4 -5 -8 -5 -27 0 -17 4 -49 12 -70 18 -21 5 -41 12 -44 15 -12 12 28 6
64 -9z m213 -66 c10 -6 4 -7 -15 -3 -16 4 -37 11 -45 15 -10 6 -4 7 15 3 17
-4 37 -11 45 -15z m7116 6 c-11 -8 -24 -15 -30 -15 -5 0 -1 7 10 15 10 8 24
14 29 14 6 0 1 -6 -9 -14z m-7046 -25 c13 -9 13 -10 0 -9 -8 0 -24 4 -35 9
l-20 9 20 0 c11 0 27 -4 35 -9z m6437 -6 c-3 -3 -12 -4 -19 -1 -8 3 -5 6 6 6
11 1 17 -2 13 -5z m1750 -16 c-3 -8 -6 -5 -6 6 -1 11 2 17 5 13 3 -3 4 -12 1
-19z m-8140 6 c-3 -3 -12 -4 -19 -1 -8 3 -5 6 6 6 11 1 17 -2 13 -5z m7043 -9
c0 -8 -61 -37 -67 -32 -3 3 8 12 24 21 29 16 43 19 43 11z m-6840 -34 c58 -11
166 -29 240 -41 74 -11 189 -29 255 -40 113 -18 116 -19 40 -14 -44 3 -127 14
-185 24 -58 10 -150 26 -205 35 -55 9 -113 19 -130 21 -84 15 -141 24 -147 24
-5 0 -8 4 -8 9 0 5 8 7 18 5 9 -2 64 -12 122 -23z m7543 -14 c-9 -16 -26 12
-18 30 7 17 8 17 15 -2 4 -11 5 -24 3 -28z m-119 7 c3 -8 2 -12 -4 -9 -6 3
-10 10 -10 16 0 14 7 11 14 -7z m176 3 c0 -7 -9 -13 -20 -14 -11 -1 -20 4 -20
13 0 8 9 14 20 14 11 0 20 -6 20 -13z m65 3 c3 -5 -3 -10 -14 -10 -12 0 -21 5
-21 10 0 6 6 10 14 10 8 0 18 -4 21 -10z m-155 -9 c0 -6 -4 -13 -10 -16 -5 -3
-10 1 -10 9 0 9 5 16 10 16 6 0 10 -4 10 -9z m-2955 -12 c11 -17 2 -18 -19 -3
-17 12 -17 14 -4 14 9 0 20 -5 23 -11z m797 -65 c-1 -32 -2 -66 -3 -75 0 -9
-6 -16 -12 -16 -8 0 -13 24 -14 66 -2 76 2 94 20 88 8 -2 11 -23 9 -63z m592
50 c3 -9 4 -19 1 -23 -2 -5 -5 -33 -6 -63 -3 -86 -24 -68 -26 24 -2 61 0 78
11 78 8 0 17 -7 20 -16z m-1984 2 c0 -3 -4 -8 -10 -11 -5 -3 -10 -1 -10 4 0 6
5 11 10 11 6 0 10 -2 10 -4z m31 -15 c-18 -14 -27 -33 -32 -67 l-6 -49 -2 44
c-1 33 5 51 21 68 12 13 26 23 32 23 6 0 0 -9 -13 -19z m99 9 c8 -5 11 -10 5
-10 -5 0 -17 5 -25 10 -8 5 -10 10 -5 10 6 0 17 -5 25 -10z m399 6 c-2 -2 -20
-6 -39 -10 -25 -4 -31 -3 -20 4 14 9 69 15 59 6z m2391 -4 c0 -10 -50 -35 -57
-28 -3 2 8 11 24 20 34 18 33 18 33 8z m-2355 -12 c3 -5 2 -10 -4 -10 -5 0
-13 5 -16 10 -3 6 -2 10 4 10 5 0 13 -4 16 -10z m-604 -27 c-12 -20 -14 -14
-5 12 4 9 9 14 11 11 3 -2 0 -13 -6 -23z m684 -5 l16 -33 -20 25 c-20 24 -26
40 -16 40 2 0 12 -15 20 -32z m-56 -49 c2 -7 -10 -1 -28 14 -18 15 -39 27 -47
27 -8 0 -14 5 -14 11 0 14 83 -34 89 -52z m15 45 c10 -25 -1 -29 -14 -5 -6 12
-7 21 -1 21 5 0 12 -7 15 -16z m-169 -9 c-16 -9 -38 -25 -47 -36 -17 -21 -25
-15 -10 7 12 17 55 44 72 44 8 0 2 -7 -15 -15z m-3636 -21 c8 -7 -73 -2 -104
6 -19 5 -6 6 35 3 36 -3 67 -7 69 -9z m3428 -21 c-3 -10 -5 -4 -5 12 0 17 2
24 5 18 2 -7 2 -21 0 -30z m-3167 -8 c621 -71 1239 -107 2095 -121 226 -4 412
-9 415 -12 6 -6 -1009 6 -1100 13 -36 3 -157 10 -270 15 -255 12 -686 45
-1020 80 -147 15 -354 40 -365 44 -24 10 44 4 245 -19z m4668 -107 c9 -9 12
-9 12 0 0 19 164 16 184 -4 26 -25 19 -34 -27 -34 l-43 0 -3 -50 c-3 -76 4
-90 47 -92 37 -1 37 -1 -8 -8 -37 -6 -40 -7 -13 -8 58 -3 72 -17 23 -22 -32
-4 -46 -10 -48 -22 -3 -13 3 -18 22 -18 14 0 26 -4 26 -10 0 -5 -11 -10 -26
-10 l-25 0 2 -90 2 -90 41 0 c34 0 42 -4 43 -19 2 -26 -29 -33 -141 -31 -219
3 -336 12 -336 26 0 17 32 18 48 2 10 -10 14 -10 21 0 5 9 42 12 135 11 70 -1
131 3 136 7 4 5 10 48 12 97 l3 87 -91 0 -92 0 -5 -42 c-3 -24 -5 -63 -5 -88
1 -37 -1 -45 -17 -45 -16 0 -18 10 -18 88 -1 68 -4 87 -15 87 -8 0 -12 6 -8
15 3 9 0 15 -9 15 -9 0 -12 -6 -9 -15 5 -12 -3 -15 -40 -15 -32 0 -46 4 -45
13 1 6 -1 20 -6 31 -4 10 -4 30 1 45 9 24 14 26 69 26 l60 0 3 63 c3 54 5 62
23 62 11 0 19 -6 18 -12 -1 -7 -1 -34 0 -60 l1 -48 58 -1 c38 -1 47 -4 27 -7
l-30 -5 30 -7 c24 -6 18 -8 -28 -9 -32 0 -56 -4 -54 -8 3 -5 47 -6 99 -4 51 2
85 6 76 8 -15 4 -16 6 -4 18 9 9 14 36 14 72 -1 50 -4 59 -22 65 -11 3 -92 6
-178 7 -133 1 -158 3 -158 16 0 18 41 20 58 3 9 -9 12 -8 12 5 0 15 12 17 93
17 59 0 97 -4 105 -12z m-1955 -5 c-24 -2 -62 -2 -85 0 -24 2 -5 4 42 4 47 0
66 -2 43 -4z m520 0 c-68 -2 -178 -2 -245 0 -68 1 -13 3 122 3 135 0 190 -2
123 -3z m216 3 c-2 -2 -24 -6 -49 -10 -31 -4 -40 -3 -30 4 13 9 89 15 79 6z
m264 -3 c-24 -2 -62 -2 -85 0 -24 2 -5 4 42 4 47 0 66 -2 43 -4z m577 -13 c0
-15 -7 -20 -25 -20 -24 0 -34 18 -18 33 15 15 43 7 43 -13z m-749 0 c23 -13
25 -30 4 -30 -8 0 -14 -5 -12 -12 1 -6 -13 -14 -30 -18 -30 -7 -33 -5 -33 16
0 12 10 30 22 38 27 19 24 19 49 6z m362 3 c-13 -2 -33 -2 -45 0 -13 2 -3 4
22 4 25 0 35 -2 23 -4z m310 -7 c5 -11 -8 -18 -51 -27 -103 -22 -205 -86 -242
-152 -22 -38 -22 -39 -4 -78 27 -62 134 -136 229 -158 71 -17 106 -32 99 -43
-12 -20 -167 25 -234 67 -41 26 -93 82 -115 125 -9 17 -22 30 -30 30 -8 0 -15
7 -15 15 0 8 6 15 13 15 7 0 23 17 34 38 43 74 142 145 237 168 68 16 73 16
79 0z m985 -12 c92 -14 174 -30 183 -35 20 -10 45 -62 54 -112 6 -31 5 -36 -8
-31 -8 3 -18 16 -21 28 -5 19 -11 22 -31 18 -14 -2 -36 3 -50 12 -30 20 -46
21 -39 1 4 -8 2 -15 -4 -15 -5 0 -26 7 -45 15 -20 8 -56 16 -79 17 -24 1 19 5
94 8 107 4 136 8 129 18 -4 7 -36 17 -72 22 -119 19 -194 30 -247 36 l-53 7 3
-79 c3 -75 4 -79 27 -82 37 -6 63 -36 59 -68 -3 -26 -7 -29 -45 -32 l-43 -3 0
-51 c0 -28 -2 -49 -4 -47 -3 2 -7 88 -10 192 -3 103 -8 192 -11 197 -10 15 32
12 213 -16z m-2352 1 c16 -12 16 -14 3 -15 -9 0 -19 -9 -22 -20 -7 -28 -67
-29 -67 -1 0 24 26 51 49 51 9 0 26 -7 37 -15z m2339 -50 c50 -8 106 -15 125
-15 19 0 41 -4 49 -9 8 -5 -55 -9 -158 -9 -94 0 -171 4 -171 8 0 5 -3 15 -6
24 -8 21 39 21 161 1z m-1095 -15 c0 -5 -10 -10 -22 -9 -22 0 -22 1 -3 9 11 5
21 9 23 9 1 1 2 -3 2 -9z m15 -62 c12 -70 13 -98 4 -98 -4 0 -6 -17 -4 -37 11
-91 12 -115 4 -102 -6 10 -9 10 -9 2 0 -7 -7 -10 -16 -6 -13 5 -13 7 -2 14 9
6 3 9 -18 9 -18 0 -42 9 -55 20 l-24 19 53 1 c28 0 52 5 52 10 0 6 -29 10 -68
10 -56 0 -69 3 -80 20 -11 19 -10 20 22 20 19 0 38 -4 41 -10 9 -15 27 -12 19
3 -4 6 2 4 14 -7 14 -12 27 -16 39 -11 16 7 15 9 -7 15 -24 8 -24 8 -2 9 18 1
22 7 22 31 l0 30 -80 0 c-81 0 -87 3 -70 30 7 11 25 14 80 11 49 -2 70 1 70 9
0 8 -15 11 -42 10 -24 -2 -52 -2 -63 -1 -40 3 26 41 71 41 41 0 42 -1 49 -42z
m159 -13 c4 -12 -3 -15 -32 -14 -22 1 -29 3 -17 7 l20 5 -20 8 c-17 6 -15 8
11 8 20 1 34 -5 38 -14z m1099 -24 c5 -5 -8 -12 -29 -15 -37 -7 -60 6 -47 27
6 10 63 1 76 -12z m-1093 -31 c0 -5 -18 -10 -41 -10 -24 0 -38 4 -34 10 3 6
22 10 41 10 19 0 34 -4 34 -10z m-280 -20 c0 -16 -7 -20 -35 -20 -38 0 -38 0
-29 24 4 10 18 16 35 16 22 0 29 -5 29 -20z m77 14 c-3 -3 -12 -4 -19 -1 -8 3
-5 6 6 6 11 1 17 -2 13 -5z m1390 0 c20 -6 20 -7 3 -24 -9 -9 -21 -35 -25 -56
-4 -22 -15 -58 -26 -81 -16 -34 -25 -43 -52 -47 -98 -16 -325 -46 -344 -46
-14 0 -23 6 -23 15 0 8 10 17 23 19 25 6 220 31 310 41 40 5 57 11 57 21 0 11
-25 14 -137 15 l-138 1 90 19 c50 11 116 19 148 17 60 -3 65 -1 45 21 -11 11
-10 13 4 8 14 -5 18 2 24 39 7 47 7 47 41 38z m-1406 -23 c-8 -5 -20 -7 -28
-4 -21 8 -15 13 15 13 20 0 23 -3 13 -9z m827 -21 c-2 -6 -8 -6 -18 0 -13 9
-13 11 0 20 15 10 25 0 18 -20z m475 -47 c-13 -2 -33 -2 -45 0 -13 2 -3 4 22
4 25 0 35 -2 23 -4z m-265 -50 c-10 -2 -26 -2 -35 0 -10 3 -2 5 17 5 19 0 27
-2 18 -5z m-28 -23 c-8 -5 -10 -10 -4 -10 6 0 14 3 18 8 9 9 146 10 146 1 0
-11 -40 -19 -122 -26 -65 -5 -78 -4 -78 9 0 20 10 28 34 28 17 0 18 -2 6 -10z
m270 6 c0 -2 -15 -6 -34 -8 -19 -2 -32 0 -30 4 5 8 64 12 64 4z m-1100 -36 c0
-5 -14 -7 -32 -3 -46 8 -48 13 -5 13 21 0 37 -4 37 -10z m43 -7 c-7 -2 -19 -2
-25 0 -7 3 -2 5 12 5 14 0 19 -2 13 -5z m224 -9 c-3 -3 -12 -4 -19 -1 -8 3 -5
6 6 6 11 1 17 -2 13 -5z m-207 -29 c0 -8 -7 -15 -15 -15 -16 0 -20 12 -8 23
11 12 23 8 23 -8z"/>
<path d="M9050 4853 c0 -16 10 -18 78 -17 108 1 112 2 112 19 0 12 -17 15 -95
15 -84 0 -95 -2 -95 -17z"/>
<path d="M1528 2683 c7 -3 16 -2 19 1 4 3 -2 6 -13 5 -11 0 -14 -3 -6 -6z"/>
<path d="M1548 2643 c7 -3 16 -2 19 1 4 3 -2 6 -13 5 -11 0 -14 -3 -6 -6z"/>
<path d="M1410 2600 c0 -5 17 -10 38 -9 30 0 33 2 17 9 -28 12 -55 12 -55 0z"/>
<path d="M1543 2593 c15 -2 37 -2 50 0 12 2 0 4 -28 4 -27 0 -38 -2 -22 -4z"/>
<path d="M11294 2261 c4 -5 0 -12 -6 -14 -8 -3 -6 -6 5 -6 9 -1 17 6 17 14 0
8 -5 15 -11 15 -5 0 -8 -4 -5 -9z"/>
<path d="M11420 2230 c0 -5 5 -10 10 -10 6 0 10 5 10 10 0 6 -4 10 -10 10 -5
0 -10 -4 -10 -10z"/>
<path d="M11400 2190 c0 -5 5 -10 11 -10 5 0 7 5 4 10 -3 6 -8 10 -11 10 -2 0
-4 -4 -4 -10z"/>
<path d="M10780 2160 c0 -5 5 -10 11 -10 5 0 7 5 4 10 -3 6 -8 10 -11 10 -2 0
-4 -4 -4 -10z"/>
<path d="M11455 1960 c3 -5 8 -10 11 -10 2 0 4 5 4 10 0 6 -5 10 -11 10 -5 0
-7 -4 -4 -10z"/>
<path d="M11330 1892 c-17 -8 -25 -32 -10 -32 5 0 14 9 20 20 6 11 9 20 8 19
-2 0 -10 -3 -18 -7z"/>
<path d="M11190 1850 c0 -6 7 -10 15 -10 8 0 15 2 15 4 0 2 -7 6 -15 10 -8 3
-15 1 -15 -4z"/>
<path d="M10900 1825 c7 -8 16 -15 20 -15 4 0 10 7 14 15 4 11 -2 15 -21 15
-21 0 -24 -2 -13 -15z"/>
<path d="M11000 1820 c0 -5 5 -10 10 -10 6 0 10 5 10 10 0 6 -4 10 -10 10 -5
0 -10 -4 -10 -10z"/>
<path d="M12078 2123 c7 -3 16 -2 19 1 4 3 -2 6 -13 5 -11 0 -14 -3 -6 -6z"/>
<path d="M12078 2033 c12 -2 30 -2 40 0 9 3 -1 5 -23 4 -22 0 -30 -2 -17 -4z"/>
<path d="M12063 1983 c9 -2 23 -2 30 0 6 3 -1 5 -18 5 -16 0 -22 -2 -12 -5z"/>
<path d="M12080 1950 c-13 -8 -12 -10 3 -10 9 0 17 5 17 10 0 12 -1 12 -20 0z"/>
<path d="M9050 978 c0 -16 10 -18 89 -18 69 0 90 3 94 15 9 22 -5 26 -97 23
-75 -2 -86 -5 -86 -20z"/>
</g>
</svg>
