<?xml version="1.0" standalone="no"?>
<!DOCTYPE svg PUBLIC "-//W3C//DTD SVG 20010904//EN"
 "http://www.w3.org/TR/2001/REC-SVG-20010904/DTD/svg10.dtd">
<svg version="1.0" xmlns="http://www.w3.org/2000/svg"
 width="300" height="140" viewBox="0 0 1024.000000 539.000000"
 preserveAspectRatio="xMidYMid meet">

<g transform="translate(0.000000,539.000000) scale(0.100000,-0.100000)"
fill="#000000" stroke="none">
<path d="M3584 5002 c-5 -11 -244 -368 -532 -794 l-523 -775 -52 -7 c-29 -3
-75 -6 -102 -6 -28 0 -81 -9 -118 -19 -89 -26 -207 -38 -207 -22 0 7 -8 10
-17 7 -10 -3 -97 -17 -193 -31 -184 -28 -570 -102 -704 -136 -43 -11 -85 -18
-92 -15 -8 3 -30 -4 -50 -16 -20 -12 -35 -17 -33 -11 2 6 236 227 519 493 670
628 632 592 627 597 -3 2 -270 -246 -595 -550 -460 -433 -598 -557 -628 -567
-22 -6 -63 -21 -92 -32 l-52 -20 -1 -192 c-1 -255 1 -300 13 -307 7 -4 6 -9
-1 -13 -6 -4 -11 -14 -11 -22 0 -8 5 -12 10 -9 6 4 10 -6 10 -24 0 -16 -4 -31
-10 -33 -12 -4 -16 -136 -4 -148 5 -4 43 -20 85 -35 l76 -26 598 -570 c329
-313 600 -568 602 -566 4 5 -70 77 -607 587 -492 467 -572 545 -549 537 9 -3
258 -188 553 -412 296 -224 539 -405 542 -403 2 3 -230 181 -516 398 -286 216
-520 394 -520 395 0 1 53 -11 117 -26 65 -16 210 -47 323 -69 113 -22 228 -45
255 -51 28 -5 84 -14 125 -19 41 -6 104 -15 140 -20 36 -6 90 -11 120 -10 30
0 91 -7 135 -15 44 -9 131 -20 193 -24 62 -5 114 -10 116 -12 3 -3 1031 -1587
1062 -1636 7 -10 15 -15 20 -10 4 4 -2 17 -13 30 -11 12 -245 368 -520 792
-274 424 -508 783 -518 798 l-18 29 26 -4 c22 -2 101 -104 468 -598 385 -520
506 -677 473 -620 -4 8 -191 260 -414 560 -489 657 -483 650 -479 655 2 2 25
1 50 -2 l47 -5 382 -439 c210 -242 386 -439 391 -439 4 0 -162 194 -369 431
-207 237 -378 434 -380 438 -1 3 42 3 95 -1 54 -4 219 -15 366 -23 148 -9 275
-19 283 -22 14 -5 18 -20 15 -59 -2 -16 5 -23 26 -27 37 -7 44 -1 37 29 -8 31
15 91 27 72 7 -10 9 -10 9 0 0 6 4 12 10 12 5 0 7 -6 4 -14 -4 -11 21 -15 128
-21 73 -4 156 -8 183 -11 28 -2 190 -11 360 -20 206 -11 313 -20 318 -27 4 -7
6 -28 5 -47 -3 -33 -1 -35 29 -38 31 -3 32 -3 35 45 l3 48 80 -3 80 -4 855
-506 c470 -278 890 -527 933 -554 43 -26 80 -48 83 -48 12 0 1 22 -13 27 -22
8 -1804 1061 -1818 1075 -6 5 41 6 124 2 l134 -7 745 -359 c409 -198 746 -357
749 -354 3 3 -5 10 -18 15 -32 13 -1429 688 -1435 694 -2 2 63 2 146 -1 l151
-5 569 -227 c314 -124 570 -223 570 -220 0 4 -243 103 -540 221 -297 118 -540
216 -540 219 0 3 55 4 121 2 l121 -3 -5 -34 c-7 -42 13 -63 46 -48 16 8 22 19
22 44 l0 34 60 -1 c155 -2 731 -4 735 -3 14 4 67 8 177 12 111 4 129 8 189 36
37 17 87 46 113 64 25 19 64 44 86 56 l40 22 515 -56 c622 -67 587 -61 593
-86 4 -15 14 -19 51 -19 41 0 46 2 46 23 0 23 33 57 265 277 44 41 136 129
205 195 69 66 163 155 209 198 45 43 81 80 79 83 -3 2 -72 -60 -154 -139 -82
-78 -213 -203 -292 -277 -79 -74 -185 -174 -235 -222 -58 -55 -100 -87 -114
-88 -22 0 -26 6 -26 43 0 9 -4 17 -8 17 -5 0 -9 5 -9 11 0 5 5 7 10 4 14 -9
12 8 -2 24 -11 11 -10 13 5 8 13 -5 16 -3 10 6 -13 21 -17 59 -10 92 2 11 -1
26 -7 34 -8 11 -8 13 1 8 8 -5 12 1 10 20 -2 24 2 28 28 30 16 1 32 -2 35 -8
4 -5 45 23 92 63 124 104 332 276 407 333 35 28 76 62 93 78 16 15 31 27 34
27 13 0 -19 -33 -113 -118 -56 -51 -106 -98 -110 -105 -4 -7 43 32 104 86 101
88 135 111 132 90 0 -5 -40 -44 -88 -88 -48 -44 -94 -89 -101 -100 -14 -20
128 104 185 163 30 29 65 43 65 24 0 -8 -192 -191 -320 -307 -36 -32 -101 -92
-145 -134 -44 -42 -117 -111 -163 -153 -45 -43 -78 -78 -74 -78 8 0 132 114
387 355 83 78 193 180 246 227 l95 86 220 1 c120 1 240 4 267 7 40 6 47 4 47
-10 0 -10 4 -15 10 -11 5 3 7 12 3 20 -4 13 -41 15 -225 15 -211 0 -220 1
-225 20 -3 11 -10 20 -17 20 -15 0 -806 792 -806 808 0 17 -72 15 -107 -3 -22
-12 -961 -182 -1033 -188 -30 -2 -144 74 -185 124 -59 73 -123 109 -205 116
-91 8 -140 -2 -140 -27 0 -13 7 -20 20 -20 11 0 20 7 20 15 0 8 5 15 10 15 12
0 13 -10 1 -28 -5 -8 -34 -15 -77 -16 -38 -2 -76 -5 -84 -7 -12 -3 -16 7 -17
45 -1 27 -4 49 -5 50 -2 1 -187 -1 -413 -5 -225 -4 -412 -5 -414 -3 -2 2 -5
21 -6 43 l-2 39 396 157 c218 86 400 161 406 166 13 13 -33 -5 -585 -224
l-465 -185 -155 -7 c-95 -4 -151 -3 -145 2 6 5 317 153 693 329 376 175 679
320 675 321 -5 2 -325 -145 -711 -326 l-702 -329 -138 -7 c-88 -5 -133 -4
-127 2 11 11 1677 966 1739 997 22 11 35 21 29 23 -5 2 -417 -229 -914 -514
l-904 -518 -113 -3 -114 -4 4 44 c3 42 2 43 -30 46 l-33 3 6 -44 c6 -38 4 -46
-12 -51 -10 -3 -162 -10 -338 -16 -310 -9 -480 -24 -470 -40 3 -4 -2 -10 -10
-14 -18 -7 -21 -66 -3 -66 9 0 9 -3 0 -12 -19 -19 -15 -58 6 -59 13 0 14 -2 2
-6 -8 -3 -18 -11 -22 -17 -5 -8 -8 -7 -8 2 0 14 -26 16 -34 3 -9 -14 4 -41 20
-41 8 0 14 5 14 10 0 6 5 10 10 10 6 0 10 -7 10 -15 0 -8 4 -15 9 -15 5 0 12
-10 14 -22 4 -19 4 -18 6 5 0 16 5 26 10 23 5 -3 7 -14 4 -25 -2 -10 3 -25 11
-34 22 -22 20 -27 -11 -27 -45 0 -20 -10 30 -11 33 -2 47 -6 47 -16 0 -12 3
-11 16 2 23 22 58 15 62 -12 3 -18 0 -22 -15 -16 -10 3 -15 3 -11 -2 4 -4 1
-14 -7 -21 -18 -18 -29 -18 -22 0 3 8 -1 17 -9 20 -24 9 -31 7 -14 -4 13 -9
13 -11 0 -19 -8 -5 -18 -7 -22 -5 -4 3 -8 0 -8 -5 0 -6 -9 -11 -20 -11 -11 0
-20 -5 -20 -11 0 -6 9 -9 20 -6 11 3 20 1 20 -4 0 -5 10 -9 23 -10 12 0 16 -3
10 -6 -7 -2 -13 -9 -13 -14 0 -6 5 -7 10 -4 6 4 10 -5 10 -20 0 -18 -8 -29
-27 -38 -33 -14 -70 -46 -40 -34 40 16 50 17 25 3 -15 -9 -34 -13 -42 -10 -19
7 -21 21 -3 27 6 2 9 7 6 11 -10 10 -39 -23 -33 -37 5 -14 -71 -57 -98 -55
-10 1 -18 7 -18 15 0 19 -30 16 -67 -7 -32 -19 -33 -19 -33 0 0 10 -4 22 -10
25 -6 3 -10 -5 -10 -18 0 -16 -7 -26 -19 -30 -19 -5 -20 2 -20 174 l0 180 25
11 c14 6 28 25 33 42 7 22 10 25 11 11 l1 -20 9 20 c13 30 12 35 -9 35 -12 0
-21 -8 -24 -22 -2 -13 -5 9 -6 48 -1 70 -1 71 23 67 13 -3 26 0 30 5 11 19 -6
42 -31 42 -13 0 -22 4 -18 9 3 5 0 13 -6 16 -6 5 -8 20 -5 41 6 27 3 35 -14
44 -32 17 -49 -2 -43 -48 l5 -38 -73 -2 c-71 -3 -425 -25 -614 -38 l-90 -7 21
24 c52 60 690 778 718 808 17 18 26 32 20 30 -7 -2 -184 -196 -393 -431 -238
-267 -390 -430 -405 -434 -82 -20 -82 -20 372 559 469 600 473 605 455 594 -7
-5 -214 -265 -459 -580 -246 -315 -452 -575 -458 -579 -18 -13 -49 -9 -43 5 6
15 1024 1526 1043 1548 16 18 18 29 6 29 -5 0 -13 -8 -18 -18z m2164 -1380 c4
-29 -11 -34 -89 -30 l-64 3 65 26 c74 31 84 31 88 1z m2598 -151 c-2 -13 -91
-32 -483 -104 l-481 -88 -38 23 c-32 19 -35 24 -19 26 11 2 243 43 515 91 289
51 498 83 501 78 4 -6 6 -17 5 -26z m472 -353 c265 -266 387 -394 376 -397
-11 -2 -144 124 -385 365 -203 202 -370 366 -373 363 -3 -3 157 -164 354 -358
198 -194 360 -357 360 -362 0 -34 -74 30 -370 321 -184 181 -339 329 -343 330
-5 0 138 -145 317 -321 179 -177 326 -325 326 -330 0 -21 -47 21 -332 295
-164 157 -301 286 -305 286 -5 0 84 -89 197 -197 349 -336 396 -383 379 -383
-9 0 -141 117 -295 260 -153 143 -283 260 -289 260 -5 0 -3 -6 5 -14 8 -7 119
-109 245 -226 127 -117 246 -228 265 -247 l35 -34 -215 3 c-184 4 -223 7 -272
25 l-58 20 0 -39 c0 -38 -1 -39 -32 -36 l-32 3 -1 67 -1 67 33 6 33 6 0 179 0
180 -42 0 c-24 0 -38 4 -33 8 12 8 13 41 2 60 -5 7 -3 12 4 12 8 0 7 5 -2 17
-12 15 -12 16 4 10 17 -6 24 7 8 17 -11 7 -21 56 -11 56 3 0 6 27 4 60 -1 59
-1 60 25 60 22 0 99 -73 419 -392z m-5268 367 c0 -9 -6 -12 -15 -9 -8 4 -12
10 -9 15 8 14 24 10 24 -6z m3180 -38 c12 -4 11 -6 -2 -6 -27 -1 -25 -57 2
-57 14 0 20 7 20 23 0 13 5 23 11 23 7 0 9 -10 5 -25 -5 -19 -2 -25 11 -26 11
0 13 -3 6 -6 -18 -7 -16 -43 2 -43 8 0 15 6 15 13 0 8 3 8 9 -2 5 -8 7 -20 4
-26 -2 -7 2 -19 9 -26 19 -19 18 -61 -1 -76 -14 -11 -13 -12 5 -13 28 0 52
-28 60 -69 4 -18 13 -35 20 -38 7 -2 16 -18 19 -34 4 -16 11 -32 17 -35 5 -4
17 -23 25 -42 14 -33 13 -37 -3 -49 -17 -12 -17 -13 0 -13 14 0 17 -6 14 -25
-3 -13 -1 -26 5 -28 5 -1 2 -10 -7 -19 -15 -15 -14 -17 6 -20 28 -4 50 -55 29
-67 -10 -6 -8 -10 5 -15 44 -17 -18 -25 -155 -21 -153 5 -220 24 -95 27 l69 1
-63 6 c-60 6 -65 8 -77 39 -11 24 -11 32 -2 32 7 0 6 4 -3 10 -18 11 -27 3
-32 -27 -5 -38 -29 -10 -30 35 -1 58 -24 55 -39 -4 -8 -30 -18 -48 -30 -51
-10 -3 -21 -14 -24 -24 -4 -10 -13 -19 -21 -19 -8 0 -12 -4 -9 -10 4 -6 -9
-11 -32 -11 -30 -2 -32 -3 -10 -6 15 -2 27 -9 27 -14 0 -5 -79 -9 -190 -9
-164 0 -189 2 -184 15 4 8 2 15 -4 15 -5 0 -8 15 -6 33 1 17 3 32 4 32 7 0 6
36 -1 41 -18 11 -9 25 12 19 15 -5 19 -4 15 4 -4 6 0 11 8 11 9 0 16 5 16 10
0 6 -7 10 -16 8 -11 -2 -18 5 -19 20 -1 12 2 22 6 22 5 0 6 6 4 13 -17 50 -28
184 -15 192 5 3 6 16 2 28 -4 12 -5 42 -2 66 4 39 9 46 35 53 16 4 32 4 35 0
3 -4 21 -8 40 -8 19 -1 97 -2 173 -3 76 -2 136 -5 133 -8 -3 -3 -1 -13 3 -22
5 -9 11 -38 14 -64 6 -54 13 -68 23 -43 4 10 2 22 -5 29 -14 14 -15 30 -1 22
6 -3 10 -1 10 4 0 6 -4 11 -9 11 -4 0 -6 11 -3 25 5 29 8 30 27 12 7 -8 10
-19 6 -25 -4 -7 -7 -31 -6 -54 1 -32 5 -44 18 -46 13 -3 17 4 18 25 1 15 0 33
-1 38 -6 27 1 129 9 139 5 6 8 23 6 37 -2 14 1 32 6 40 7 11 9 11 9 1 0 -7 4
-11 9 -7 5 3 12 1 16 -5 3 -5 -1 -10 -9 -10 -12 0 -16 -11 -15 -47 0 -27 3
-42 6 -35 2 6 11 12 19 12 11 0 14 16 14 70 0 66 -1 70 -22 71 l-23 2 23 4
c12 2 22 10 22 16 0 9 2 9 8 1 4 -6 14 -14 22 -17z m47 -3 c-3 -3 -12 -4 -19
-1 -8 3 -5 6 6 6 11 1 17 -2 13 -5z m43 -19 c0 -14 -4 -25 -9 -25 -4 0 -6 11
-3 25 2 14 6 25 8 25 2 0 4 -11 4 -25z m1525 -300 c0 -227 -3 -315 -11 -315
-6 0 -78 24 -160 53 -124 43 -189 75 -384 186 -129 73 -268 151 -307 174 -40
22 -70 43 -67 46 6 6 873 168 909 170 20 1 20 -5 20 -314z m-4795 285 c0 -5
-7 -10 -15 -10 -8 0 -15 5 -15 10 0 6 7 10 15 10 8 0 15 -4 15 -10z m-3 -76
c-3 -3 -12 -4 -19 -1 -8 3 -5 6 6 6 11 1 17 -2 13 -5z m-1440 -10 c-3 -3 -12
-4 -19 -1 -8 3 -5 6 6 6 11 1 17 -2 13 -5z m-7 -54 c0 -5 -4 -10 -10 -10 -5 0
-10 5 -10 10 0 6 5 10 10 10 6 0 10 -4 10 -10z m40 -15 c0 -31 20 -33 21 -2 1
12 7 0 14 -28 7 -27 14 -43 14 -35 2 27 22 -6 23 -38 1 -28 4 -31 44 -37 24
-3 44 -8 44 -11 0 -3 -11 -22 -25 -42 -31 -46 -32 -61 -2 -36 l22 19 -19 -22
c-10 -13 -22 -20 -27 -17 -4 2 -13 -4 -18 -15 -21 -39 22 -15 71 40 32 36 48
48 48 37 0 -10 -5 -18 -11 -18 -5 0 -8 -4 -4 -9 3 -5 1 -12 -4 -15 -5 -4 -24
-25 -42 -49 -32 -41 -32 -41 -4 -17 16 14 39 36 52 50 21 23 23 23 21 5 -2
-11 -7 -23 -12 -27 -6 -4 2 -12 17 -19 18 -8 27 -20 27 -36 0 -12 -4 -23 -10
-23 -5 0 -10 -9 -10 -20 0 -11 -7 -23 -15 -26 -8 -4 -13 -10 -10 -14 3 -4 -3
-11 -12 -14 -15 -6 -15 -8 -3 -17 12 -8 10 -13 -13 -30 -21 -16 -25 -24 -17
-34 17 -21 -21 -28 -111 -20 -72 6 -78 9 -62 22 10 8 12 11 5 8 -9 -5 -15 1
-19 14 -3 12 -9 21 -14 21 -5 0 -9 8 -10 18 0 13 -3 12 -11 -5 -20 -42 -35
-20 -28 41 1 14 -3 18 -19 13 -12 -3 -21 -2 -21 3 0 4 9 10 21 13 12 3 19 11
17 18 -6 19 -28 23 -28 5 0 -11 -8 -15 -25 -14 -30 3 -36 38 -6 38 10 0 22 8
26 18 7 16 8 15 15 -3 10 -23 11 -17 15 65 2 70 14 108 26 89 6 -10 9 -5 10
16 1 49 5 75 12 82 4 3 7 1 7 -5 0 -7 5 -12 10 -12 6 0 10 23 10 50 0 28 5 50
10 50 6 0 10 -11 10 -25z m3543 8 c-2 -7 3 -10 11 -7 18 7 29 -25 15 -43 -7
-7 -9 -16 -6 -19 8 -8 -25 -44 -35 -38 -13 8 -9 -9 7 -30 9 -11 12 -29 9 -43
-5 -17 -3 -24 7 -23 26 4 39 0 39 -11 0 -7 -10 -9 -25 -7 -26 5 -35 -6 -12
-15 12 -5 -26 -11 -50 -8 -11 2 -18 -18 -14 -41 0 -5 -8 -8 -18 -8 -11 0 -23
-5 -27 -11 -4 -7 0 -9 14 -5 27 9 34 -5 15 -29 -13 -16 -15 -17 -10 -3 5 15 1
18 -27 15 -28 -2 -32 -5 -23 -15 9 -11 6 -14 -13 -12 -38 3 -46 1 -30 -10 11
-7 3 -10 -30 -11 -25 -1 -53 0 -64 1 -11 1 -15 -3 -12 -9 4 -6 16 -11 27 -11
20 0 26 -24 8 -36 -8 -4 -7 -9 2 -15 12 -7 12 -9 0 -9 -7 0 -11 -6 -7 -15 3
-8 1 -15 -4 -15 -6 0 -9 -3 -9 -7 5 -33 -3 -43 -33 -44 -28 0 -30 -2 -13 -9
18 -8 17 -9 -7 -9 -16 -1 -28 4 -28 9 0 6 -7 10 -16 10 -8 0 -12 -4 -9 -10 4
-6 -7 -10 -25 -10 -18 0 -29 4 -25 10 4 6 -8 10 -28 10 -35 0 -58 23 -34 34 9
5 9 7 0 12 -29 13 -12 40 22 35 6 -1 2 5 -8 13 -21 16 -7 31 21 22 13 -4 19
-1 19 10 0 12 -7 15 -28 10 -30 -6 -60 16 -39 29 8 5 8 10 0 20 -8 10 -7 14 7
17 14 3 10 7 -14 18 -19 9 -32 21 -30 30 1 9 -7 16 -22 18 -14 2 -21 0 -17 -7
4 -5 -2 -9 -12 -8 -11 0 -19 8 -18 15 1 8 -6 17 -14 19 -13 4 -13 3 0 -6 13
-9 12 -11 -3 -11 -10 0 -15 -4 -12 -10 3 -5 1 -10 -5 -10 -6 0 -8 -4 -5 -10 8
-13 -1 -13 -26 0 -13 7 -19 7 -19 0 0 -5 -10 -8 -22 -6 -13 3 -26 5 -29 5 -4
1 -10 17 -13 36 -4 19 -11 35 -16 35 -5 0 -7 11 -4 25 3 17 -1 27 -11 31 -8 3
-12 11 -8 17 3 6 1 7 -5 3 -14 -8 -55 18 -45 28 4 4 -1 4 -11 0 -11 -4 -21 -2
-26 6 -5 8 -13 9 -21 4 -19 -12 -59 -12 -59 -1 0 5 -7 3 -16 -4 -21 -17 -50
-18 -91 -2 -29 11 -33 10 -33 -5 0 -14 -2 -14 -9 -3 -5 7 -13 11 -19 7 -5 -3
-15 0 -21 8 -9 11 -5 16 21 26 18 7 51 20 74 30 62 28 145 49 189 49 22 -1 78
1 125 4 47 2 90 2 95 -2 15 -9 29 -8 37 3 4 6 16 6 33 -2 32 -15 48 -15 40 -2
-4 6 12 9 39 8 26 -1 40 -6 33 -10 -8 -5 -4 -8 10 -8 12 0 24 4 27 8 3 5 44 9
92 10 48 1 89 4 91 6 2 2 56 3 121 2 86 -1 116 -4 115 -13z m-3626 -15 c-3 -8
-6 -5 -6 6 -1 11 2 17 5 13 3 -3 4 -12 1 -19z m153 -14 c0 -14 -4 -23 -9 -20
-5 3 -7 15 -4 26 7 28 13 25 13 -6z m2443 6 c-17 -16 -154 -59 -170 -54 -12 4
-14 3 -6 -3 9 -6 4 -12 -17 -20 -19 -7 -30 -8 -30 -2 0 6 -4 7 -10 4 -5 -3
-10 0 -10 8 0 25 89 60 179 72 18 2 35 6 38 9 3 2 12 2 20 -1 8 -3 11 -9 6
-13z m-2553 -11 c0 -11 -4 -18 -10 -14 -5 3 -7 12 -3 20 7 21 13 19 13 -6z
m2115 1 c0 -1 10 -3 22 -4 32 -4 40 -14 17 -22 -10 -4 -31 -16 -46 -26 -14
-10 -29 -18 -32 -18 -8 0 -8 65 0 72 4 5 39 3 39 -2z m192 -17 c-12 -7 -41
-12 -64 -13 -26 0 -43 -5 -43 -12 0 -6 -3 -8 -7 -4 -11 11 26 36 43 29 8 -3
14 -1 14 5 0 5 18 9 40 8 37 -1 38 -1 17 -13z m-2342 -43 c-3 -57 -12 -60 -13
-5 -1 25 2 45 7 45 4 0 7 -18 6 -40z m2213 8 c-6 -26 -98 -70 -98 -47 0 5 4 9
10 9 5 0 26 11 46 25 42 29 45 29 42 13z m-952 -16 c7 -4 15 -33 19 -64 12
-99 30 -63 26 52 0 18 4 13 15 -17 16 -44 33 -56 35 -25 1 9 1 20 0 25 0 4 4
7 9 7 6 0 11 -8 11 -17 1 -10 3 -27 5 -38 9 -50 12 -104 7 -152 -5 -44 -9 -53
-25 -53 -15 0 -18 5 -13 23 6 20 5 21 -8 5 -15 -18 -43 -26 -32 -9 3 5 2 12
-3 14 -4 3 -12 -6 -19 -19 -10 -22 -9 -24 15 -25 37 -1 69 -14 55 -22 -7 -4
-17 -24 -24 -45 -16 -50 -44 -72 -90 -72 -37 0 -38 1 -29 26 6 14 8 30 4 35
-3 5 5 9 18 10 15 0 18 3 8 6 -16 7 -39 33 -40 45 0 4 7 5 15 2 16 -6 45 12
45 27 0 5 -10 9 -22 10 -13 0 -17 3 -10 6 10 4 10 8 1 19 -9 11 -8 14 5 14 9
0 16 -5 16 -11 0 -5 5 -7 11 -4 7 5 3 14 -10 26 -22 21 -27 39 -11 39 6 0 10
4 10 10 0 5 -8 7 -17 4 -15 -5 -15 -3 1 10 19 16 19 16 -3 16 -12 0 -19 4 -16
10 3 6 -4 10 -17 10 -17 0 -19 3 -9 9 10 7 10 10 1 16 -9 6 -6 12 11 21 l24
13 -25 1 c-21 1 -23 2 -8 11 10 5 15 16 11 24 -4 11 -1 13 11 9 9 -4 16 -3 15
2 -4 24 6 30 27 16z m-339 -26 c7 -5 -43 -86 -54 -87 -7 -1 -17 -3 -23 -4 -5
-1 -14 -3 -20 -4 -5 0 -10 -8 -10 -16 0 -8 -10 -20 -22 -27 -28 -15 -50 -19
-43 -8 3 5 -2 16 -11 24 -14 15 -14 16 5 16 12 0 21 4 21 10 0 6 -24 9 -55 9
-30 -1 -55 -6 -55 -12 0 -6 -3 -7 -7 -4 -3 4 -12 -5 -20 -19 -16 -33 -16 -35
2 -28 9 4 15 0 15 -10 0 -9 3 -15 8 -15 35 6 71 -3 76 -18 4 -14 4 -14 3 2 -2
14 -11 21 -30 23 -31 4 -33 8 -13 28 20 19 53 20 37 0 -9 -11 -6 -17 19 -27
29 -13 40 -29 20 -29 -5 0 -12 -11 -16 -24 -4 -17 -12 -23 -30 -22 -13 0 -24
5 -24 10 0 4 -11 5 -25 2 -14 -4 -25 -2 -25 3 0 5 -17 5 -41 0 -23 -6 -49 -9
-58 -8 -9 1 -23 -1 -32 -5 -9 -4 -34 -6 -55 -4 l-39 3 -2 106 c-1 58 2 110 5
116 6 10 58 19 72 13 3 -1 83 -4 178 -6 152 -4 172 -3 172 11 0 13 7 15 38 9
20 -4 38 -7 39 -8z m513 -30 c0 -16 -18 -31 -27 -22 -8 8 5 36 17 36 5 0 10
-6 10 -14z m-1186 -31 c-9 -14 -18 -25 -21 -25 -5 0 5 18 20 38 17 22 18 13 1
-13z m1181 -45 c2 -16 -1 -30 -6 -30 -5 0 -9 3 -10 8 0 4 -2 16 -4 26 -4 21 4
41 12 32 3 -3 7 -19 8 -36z m844 -6 c-10 -19 -10 -27 -1 -36 19 -19 14 -62 -8
-75 -25 -16 -27 -11 -26 66 1 50 6 66 21 77 25 19 32 2 14 -32z m-2630 -15
c-5 -11 -14 -17 -18 -15 -4 3 -17 -1 -27 -9 -18 -14 -18 -14 0 -15 15 0 16 -3
6 -15 -7 -8 -19 -15 -27 -15 -9 0 -13 -6 -10 -14 7 -18 -29 -57 -47 -50 -8 3
-16 -3 -19 -15 -3 -15 -13 -21 -32 -21 -16 0 -24 -4 -20 -11 4 -6 14 -8 23 -4
15 6 15 4 0 -12 -52 -55 -56 -62 -45 -66 17 -6 3 -18 -19 -18 -11 0 -56 0
-102 0 -74 0 -85 3 -102 23 -24 28 -25 38 -4 38 11 0 15 6 11 20 -3 11 -1 20
4 20 5 0 9 -9 9 -20 0 -11 5 -20 11 -20 6 0 8 7 5 16 -5 14 -4 15 9 4 13 -11
14 -10 9 5 -6 15 -3 17 24 13 18 -2 32 -1 32 4 0 8 -27 12 -85 11 -94 -1 -126
-4 -120 -13 3 -5 12 -7 20 -3 8 3 15 0 15 -6 0 -6 -7 -11 -15 -11 -8 0 -14 -3
-14 -7 1 -5 0 -10 -1 -13 -7 -18 -7 -39 0 -35 5 3 11 1 15 -5 3 -5 15 -10 26
-10 11 0 17 5 14 10 -3 6 1 10 9 10 9 0 16 -6 16 -13 0 -14 -42 -18 -185 -20
-136 -1 -158 2 -152 23 3 10 0 22 -7 25 -6 3 0 3 14 1 21 -4 22 -3 10 7 -20
16 -24 38 -8 48 9 6 9 9 1 9 -27 0 -7 40 32 62 48 28 37 27 312 27 122 0 224
4 226 8 3 5 -27 8 -66 9 -58 0 -73 3 -75 16 -2 11 3 15 15 13 10 -1 24 2 30 7
7 6 22 8 33 5 11 -3 20 -2 20 1 0 8 39 14 97 16 39 0 41 1 20 13 -20 10 -15
12 38 15 89 5 107 0 94 -23z m2875 9 c20 -28 20 -52 1 -68 -13 -11 -13 -15 0
-33 8 -12 15 -28 15 -35 0 -12 -2 -12 -17 -1 -9 8 -19 12 -22 9 -3 -3 -7 30
-8 73 -2 80 5 92 31 55z m-3037 6 c-3 -3 -12 -4 -19 -1 -8 3 -5 6 6 6 11 1 17
-2 13 -5z m2859 -67 c1 -61 -6 -81 -20 -59 -3 5 -8 37 -11 71 -5 56 -4 62 12
59 15 -3 18 -15 19 -71z m85 54 c-7 -12 -7 -28 2 -50 13 -35 2 -64 -27 -69
-14 -3 -16 5 -12 60 2 35 5 66 5 71 1 4 10 7 21 7 17 0 19 -3 11 -19z m-251
-26 c7 -9 10 -18 7 -22 -8 -7 -37 15 -37 28 0 14 16 11 30 -6z m-37 -25 c3
-11 1 -18 -4 -14 -5 3 -9 12 -9 20 0 20 7 17 13 -6z m-2856 -6 c-3 -3 -12 -4
-19 -1 -8 3 -5 6 6 6 11 1 17 -2 13 -5z m2148 -22 c-3 -3 -11 0 -18 7 -9 10
-8 11 6 5 10 -3 15 -9 12 -12z m400 5 c-11 -7 -35 -19 -53 -27 -52 -20 -29
-23 27 -3 55 19 71 14 74 -26 1 -11 7 -21 14 -21 22 0 27 -23 8 -37 -15 -10
-16 -16 -7 -25 21 -21 14 -23 -64 -23 -59 0 -78 -3 -82 -15 -9 -25 -24 -30
-105 -30 -60 0 -82 4 -95 17 -15 15 -11 16 56 11 51 -4 72 -2 69 6 -2 7 -24
10 -59 8 -61 -4 -68 1 -75 54 -4 31 -2 34 21 34 15 0 29 -6 32 -14 6 -15 28
-16 41 -1 4 4 2 5 -4 1 -7 -4 -13 -2 -13 4 0 7 6 10 14 7 8 -3 32 -1 53 5 47
12 72 33 28 23 -29 -7 -30 -7 -8 9 11 9 29 17 40 19 10 2 34 11 53 20 43 20
62 22 35 4z m-268 -53 c-3 -3 -12 -4 -19 -1 -8 3 -5 6 6 6 11 1 17 -2 13 -5z
m1260 -9 c3 -9 3 -19 -1 -22 -7 -7 -36 16 -36 28 0 15 30 10 37 -6z m169 -21
c41 -15 74 -32 74 -39 0 -22 -12 -45 -20 -40 -5 3 -6 -4 -3 -15 3 -11 3 -20 1
-20 -16 0 -68 23 -68 31 0 4 -7 5 -17 2 -12 -5 -14 -3 -8 7 5 9 4 11 -4 6 -14
-9 -71 2 -71 14 0 13 30 80 36 80 3 0 39 -12 80 -26z m-200 -22 c-9 -8 -26 10
-26 26 1 15 2 15 15 -2 8 -11 13 -21 11 -24z m-1296 2 c0 -19 -5 -25 -17 -22
-10 2 -19 12 -21 22 -2 11 0 16 6 12 6 -3 13 -2 17 4 10 16 15 12 15 -16z
m1177 -17 c-14 -30 -27 -35 -27 -11 0 15 31 47 37 40 2 -1 -3 -14 -10 -29z
m53 -27 c0 -13 -9 -22 -25 -26 -36 -9 -40 -1 -13 29 25 28 38 27 38 -3z m-309
11 c-11 -7 -10 -10 5 -14 16 -4 16 -5 -3 -6 -14 -1 -23 5 -23 14 0 8 8 15 18
15 14 0 14 -2 3 -9z m-937 -7 c23 -9 20 -24 -4 -24 -11 0 -20 7 -20 15 0 17 2
18 24 9z m1322 -9 c-8 -8 -19 -15 -25 -15 -6 0 -11 7 -11 15 0 9 10 15 26 15
23 0 24 -2 10 -15z m-2346 -6 c0 -5 4 -8 9 -5 5 3 11 -1 14 -9 5 -12 2 -12
-18 -3 -25 11 -34 28 -15 28 6 0 10 -5 10 -11z m-450 -9 c0 -5 -4 -10 -10 -10
-5 0 -10 5 -10 10 0 6 5 10 10 10 6 0 10 -4 10 -10z m568 -10 c11 -18 10 -20
-14 -20 -21 0 -24 3 -15 13 6 8 8 17 4 20 -3 4 -2 7 3 7 5 0 15 -9 22 -20z
m4022 10 c0 -5 -4 -10 -10 -10 -5 0 -10 5 -10 10 0 6 5 10 10 10 6 0 10 -4 10
-10z m-3860 -10 c0 -5 -4 -10 -10 -10 -5 0 -10 5 -10 10 0 6 5 10 10 10 6 0
10 -4 10 -10z m-425 -9 c3 -5 1 -12 -5 -16 -5 -3 -10 1 -10 9 0 18 6 21 15 7z
m311 -18 c-10 -10 -19 5 -10 18 6 11 8 11 12 0 2 -7 1 -15 -2 -18z m44 17 c0
-5 -5 -10 -11 -10 -5 0 -7 5 -4 10 3 6 8 10 11 10 2 0 4 -4 4 -10z m1155 0
c-28 -12 -55 -12 -55 0 0 6 17 10 38 9 30 0 33 -2 17 -9z m982 -1 c-14 -8 -22
-8 -30 0 -8 8 -3 11 19 11 25 -1 27 -2 11 -11z m-2097 -7 c0 -5 -7 -9 -15 -9
-8 0 -15 4 -15 9 0 4 7 8 15 8 8 0 15 -4 15 -8z m790 -2 c0 -13 -11 -13 -30 0
-12 8 -11 10 8 10 12 0 22 -4 22 -10z m3097 -6 c-3 -3 -12 -4 -19 -1 -8 3 -5
6 6 6 11 1 17 -2 13 -5z m-4580 -34 c3 -11 13 -20 22 -20 14 0 14 2 1 10 -27
18 9 32 65 26 28 -3 67 -6 88 -6 36 0 55 -20 20 -20 -16 -1 -16 -2 1 -15 19
-14 19 -15 -5 -38 -33 -33 -53 -38 -78 -21 -19 14 -20 13 -14 -3 6 -17 5 -17
-15 1 -19 16 -22 17 -22 3 0 -9 6 -20 14 -24 8 -4 24 -25 36 -45 l22 -38 -38
0 c-42 0 -41 -9 2 -14 16 -2 32 -4 36 -5 5 -1 28 -56 28 -67 0 -2 -8 -4 -19
-4 -15 0 -12 -6 16 -36 26 -28 31 -39 21 -45 -14 -10 -13 -11 20 -14 16 -2 21
2 18 11 -10 25 9 14 31 -18 20 -29 21 -34 7 -49 -21 -23 -63 -33 -80 -19 -7 7
-18 9 -25 5 -6 -4 -31 -9 -56 -11 -52 -3 -71 -14 -26 -14 18 0 33 -6 37 -15 3
-9 0 -15 -9 -15 -8 0 -15 -7 -15 -15 0 -20 -10 -19 -26 3 -12 15 -13 15 -14
-10 0 -15 -5 -30 -10 -33 -7 -4 -9 2 -4 19 5 21 1 28 -20 37 -14 7 -23 16 -19
22 3 5 1 12 -5 16 -18 11 -19 481 -1 481 6 0 13 -9 16 -20z m-542 -24 c-2 -16
-10 -33 -17 -37 -10 -7 -10 -9 0 -9 10 0 10 -4 0 -20 -7 -11 -18 -20 -24 -20
-6 0 -25 -7 -42 -15 -17 -9 -70 -18 -118 -21 -81 -5 -87 -4 -74 12 12 13 6 12
-25 -5 -22 -11 -44 -21 -50 -21 -5 0 -52 -21 -103 -47 -74 -38 -95 -45 -101
-34 -5 8 -16 11 -25 8 -9 -4 -16 -2 -16 3 0 13 36 31 46 22 5 -4 3 0 -4 9 -9
13 -1 23 51 63 34 27 58 47 52 44 -34 -13 -65 -32 -65 -39 0 -10 -68 -49 -86
-49 -8 0 -14 9 -14 20 0 11 5 20 10 20 6 0 10 5 10 11 0 7 -10 5 -25 -5 -30
-20 -41 -21 -25 -1 6 8 20 30 30 50 17 34 15 46 -6 25 -8 -8 -15 -6 -24 5 -9
11 -9 15 -1 15 7 0 9 5 6 10 -3 6 3 10 13 10 11 0 22 6 25 14 5 12 53 15 306
13 l300 -1 -4 -30z m840 24 c3 -5 2 -10 -4 -10 -5 0 -13 5 -16 10 -3 6 -2 10
4 10 5 0 13 -4 16 -10z m4578 -7 c-2 -9 9 -13 33 -13 21 0 33 -4 29 -10 -4 -6
-22 -9 -40 -8 -19 1 -37 -1 -41 -5 -4 -4 15 -7 43 -7 40 0 50 -3 50 -17 0 -18
-31 -57 -48 -59 -5 -1 -18 -2 -30 -3 -23 -1 -16 -21 8 -21 21 0 74 -40 68 -51
-4 -5 -25 -9 -47 -9 -45 0 -46 -8 -2 -16 15 -3 31 -7 36 -10 14 -9 9 -24 -9
-25 -17 -1 -17 -2 0 -6 16 -4 25 -23 10 -23 -5 0 -8 -15 -7 -32 1 -37 -11 -46
-66 -48 l-35 -2 40 -12 c23 -7 40 -18 40 -26 0 -8 4 -18 9 -21 5 -4 5 -15 1
-25 -8 -18 -9 -28 -13 -66 -1 -10 -12 -26 -24 -38 -24 -23 -78 -27 -78 -7 0 8
-12 13 -30 13 -18 0 -30 -5 -30 -13 0 -7 -11 -13 -25 -13 -21 0 -25 -5 -24
-27 l1 -28 8 25 c7 22 12 24 9 4 0 -4 5 -11 13 -15 10 -7 10 -9 1 -9 -8 0 -14
-15 -14 -37 -1 -24 -3 -29 -6 -15 -5 27 -23 29 -23 2 0 -11 -3 -19 -7 -18 -5
0 -15 -1 -23 -5 -35 -13 -60 -14 -61 -4 -1 7 -1 36 0 65 1 46 -1 52 -19 52
-20 0 -21 5 -18 80 3 67 1 80 -12 81 -10 0 -11 2 -2 6 7 3 12 25 12 60 0 48
-2 54 -15 43 -12 -10 -15 -10 -15 4 0 9 7 16 15 16 11 0 15 12 15 45 0 29 4
45 13 46 10 0 10 2 0 6 -16 6 -17 39 -3 48 7 5 8 11 1 19 -6 7 -6 17 -1 26 12
19 17 12 23 -28 6 -36 17 -56 17 -30 0 9 6 18 14 21 15 6 11 47 -5 47 -13 0
-11 26 4 38 7 6 43 12 79 13 85 3 78 19 -8 19 -49 0 -64 3 -64 15 0 11 17 15
73 18 128 6 182 3 180 -10z m62 7 c4 -6 -5 -10 -20 -10 -15 0 -24 4 -20 10 3
6 12 10 20 10 8 0 17 -4 20 -10z m2163 3 c-10 -2 -28 -2 -40 0 -13 2 -5 4 17
4 22 1 32 -1 23 -4z m52 3 c0 -2 -7 -6 -15 -10 -8 -3 -15 -1 -15 4 0 6 7 10
15 10 8 0 15 -2 15 -4z m-6500 -14 c0 -5 -7 -9 -15 -9 -8 0 -15 4 -15 9 0 4 7
8 15 8 8 0 15 -4 15 -8z m830 -12 c0 -13 -7 -20 -20 -20 -19 0 -27 20 -13 33
13 14 33 6 33 -13z m233 0 c4 -17 0 -20 -34 -20 -30 0 -39 4 -40 18 -1 16 -2
16 -6 0 -3 -14 -15 -18 -53 -18 -48 0 -67 10 -55 30 3 6 46 10 94 10 80 0 89
-2 94 -20z m105 -21 c-7 -5 -28 -8 -45 -7 -24 1 -33 6 -33 18 0 27 9 29 51 12
27 -10 36 -18 27 -23z m2762 26 c0 -8 -7 -15 -15 -15 -8 0 -15 7 -15 15 0 8 7
15 15 15 8 0 15 -7 15 -15z m-4030 -5 c0 -5 -4 -10 -9 -10 -6 0 -13 5 -16 10
-3 6 1 10 9 10 9 0 16 -4 16 -10z m64 -5 c3 -8 1 -15 -4 -15 -6 0 -10 7 -10
15 0 8 2 15 4 15 2 0 6 -7 10 -15z m2726 5 c0 -4 -7 -13 -15 -20 -8 -7 -13
-16 -10 -20 3 -5 1 -11 -5 -15 -6 -4 -7 -12 -3 -18 15 -23 11 -37 -10 -38 -18
-1 -19 -2 -4 -6 12 -3 16 -10 12 -24 -5 -14 -3 -17 9 -13 9 3 16 1 16 -5 0 -6
-8 -12 -17 -12 -16 -1 -16 -2 1 -6 10 -3 28 -16 40 -29 21 -24 37 -29 89 -26
18 1 26 6 21 13 -3 6 0 15 7 20 19 12 139 11 139 -1 0 -5 -5 -10 -10 -10 -6 0
-8 -11 -4 -26 4 -17 2 -29 -7 -35 -9 -6 -10 -9 -2 -9 6 0 19 10 27 22 9 12 16
17 16 11 0 -7 -5 -15 -10 -18 -6 -4 -8 -11 -5 -16 4 -5 -1 -9 -10 -9 -11 0
-15 -5 -11 -16 3 -8 2 -12 -4 -9 -13 8 -13 -11 0 -36 9 -15 7 -19 -7 -19 -17
-1 -17 -1 1 -15 10 -7 15 -18 12 -23 -3 -6 7 -9 24 -8 17 1 30 -1 30 -5 0 -4
-17 -9 -37 -11 -22 -2 -37 -8 -36 -14 1 -8 -6 -10 -19 -6 -17 4 -20 2 -15 -11
3 -9 3 -16 -1 -16 -4 1 -16 0 -27 -1 -17 -2 -17 -3 5 -10 l25 -8 -25 -8 -25
-8 27 -6 c25 -5 26 -6 11 -25 -13 -16 -15 -17 -10 -2 6 15 2 16 -25 12 -39 -7
-44 -11 -23 -18 8 -4 15 -1 15 6 0 8 4 6 10 -3 13 -20 12 -26 -2 -28 -7 -1
-51 -5 -98 -10 -51 -6 -68 -10 -44 -11 29 -1 44 -6 48 -17 5 -14 4 -15 -9 -4
-10 8 -15 9 -15 1 0 -7 -16 -9 -47 -5 -66 7 -84 13 -77 27 3 7 -1 4 -9 -5 -8
-10 -17 -18 -20 -18 -4 0 -3 8 0 18 5 13 4 15 -8 7 -8 -6 -36 -9 -64 -7 -27 3
-72 4 -98 4 -46 0 -49 2 -44 24 3 19 2 22 -9 13 -8 -6 -12 -15 -9 -19 7 -11
-22 -16 -62 -12 -21 3 -31 8 -26 16 3 6 1 6 -8 -1 -19 -19 -43 -16 -99 11 -28
14 -64 28 -81 31 -50 11 -32 32 50 56 24 7 45 19 48 26 3 7 15 13 27 13 17 0
18 2 6 10 -11 7 -8 10 16 10 18 0 38 8 49 20 10 11 24 20 31 20 7 0 14 5 16
12 2 6 23 11 46 11 23 0 39 4 36 9 -6 10 14 38 27 38 5 0 9 -6 9 -14 0 -8 8
-17 18 -21 22 -9 86 -15 78 -8 -3 4 -1 12 5 20 16 19 -10 17 -31 -2 -24 -22
-45 -10 -47 28 -1 17 1 27 5 20 5 -7 13 -9 21 -4 10 7 8 11 -9 16 -20 6 -21 9
-7 17 10 5 17 16 17 23 0 8 5 15 11 15 5 0 7 5 4 11 -4 6 -1 10 6 8 8 -1 25
-1 39 0 19 1 21 4 11 10 -8 5 -21 7 -30 4 -13 -4 -12 -1 2 10 12 10 14 17 7
22 -5 3 -8 10 -5 15 3 5 1 12 -5 15 -6 4 -1 14 12 25 13 11 17 19 10 20 -7 0
-10 4 -7 10 3 5 0 7 -7 5 -9 -4 -23 10 -37 35 l-23 41 111 -2 c61 -1 111 -5
111 -9z m-821 -80 c38 -73 44 -100 21 -100 -7 0 -90 158 -90 173 0 4 6 7 14 7
8 0 33 -36 55 -80z m1836 60 c0 -8 -14 -17 -33 -21 -18 -4 -36 -10 -40 -14 -4
-5 1 -5 11 -2 9 4 17 2 17 -3 0 -6 -16 -10 -36 -10 -28 0 -35 -3 -30 -15 3 -8
1 -15 -4 -15 -5 0 -7 -6 -4 -13 2 -7 -4 -22 -15 -34 -11 -11 -21 -29 -23 -39
-4 -25 -57 -84 -75 -84 -8 0 -12 -4 -9 -9 6 -9 -22 -37 -33 -35 -3 1 -12 -1
-19 -4 -21 -7 -25 4 -26 68 -1 41 3 61 12 65 8 3 10 10 5 17 -20 34 -13 48 25
50 l37 1 -39 4 c-31 3 -36 7 -25 15 11 7 9 9 -8 5 -16 -3 -23 0 -23 9 0 8 4
14 8 14 13 0 11 34 -2 42 -7 5 -7 8 2 8 7 0 10 5 7 10 -4 7 47 10 157 8 135
-3 163 -6 163 -18z m2003 -16 c0 -46 9 -54 30 -27 9 12 30 27 45 32 32 12 457
15 456 4 0 -8 -189 -167 -284 -239 -29 -22 -71 -56 -93 -75 -41 -36 -56 -48
-115 -92 l-37 -28 0 160 c0 176 4 166 -60 163 -17 -1 -21 1 -11 7 9 6 10 14 3
27 -16 30 -15 34 10 56 l23 20 -22 -6 c-25 -8 -26 -6 -17 18 4 10 18 16 39 16
31 0 33 -2 33 -36z m-5638 22 c0 -2 -7 -6 -15 -10 -8 -3 -15 -1 -15 4 0 6 7
10 15 10 8 0 15 -2 15 -4z m4553 -3 c-7 -2 -19 -2 -25 0 -7 3 -2 5 12 5 14 0
19 -2 13 -5z m230 0 c-7 -2 -21 -2 -30 0 -10 3 -4 5 12 5 17 0 24 -2 18 -5z
m110 0 c-13 -2 -33 -2 -45 0 -13 2 -3 4 22 4 25 0 35 -2 23 -4z m116 3 c-11
-9 -69 -14 -69 -6 0 6 17 10 37 10 20 0 34 -2 32 -4z m104 -3 c-13 -2 -35 -2
-50 0 -16 2 -5 4 22 4 28 0 40 -2 28 -4z m72 -3 c-28 -12 -37 -12 -30 0 3 6
16 10 28 9 21 0 21 -1 2 -9z m-3459 -27 c4 -16 11 -34 17 -41 8 -10 7 -16 -4
-24 -11 -8 -11 -9 3 -5 12 4 23 -5 37 -29 12 -19 21 -37 21 -39 0 -2 -46 -28
-102 -58 -106 -56 -168 -77 -168 -58 0 6 4 11 8 11 5 0 17 7 28 15 18 14 17
14 -8 4 -31 -14 -63 3 -54 28 3 8 2 12 -3 9 -4 -3 -13 6 -20 21 -12 25 -3 42
21 43 4 0 7 9 5 21 -2 17 17 31 98 75 55 29 103 54 107 54 4 0 11 -12 14 -27z
m-1982 8 c4 -5 -3 -7 -14 -4 -23 6 -26 13 -6 13 8 0 17 -4 20 -9z m4116 -13
c0 -12 -3 -18 -7 -14 -11 10 -12 36 -2 36 5 0 9 -10 9 -22z m-3102 -15 c3 -17
-2 -21 -17 -20 -23 1 -28 13 -8 20 9 4 8 8 -3 17 -13 9 -12 11 5 8 12 -2 21
-12 23 -25z m212 -17 c0 -26 -2 -46 -5 -46 -12 0 -75 35 -75 41 0 8 -47 2 -62
-7 -5 -3 -4 -12 3 -20 8 -10 16 -11 29 -4 13 7 24 5 40 -8 22 -18 22 -18 -18
-14 -22 2 -43 -1 -46 -7 -5 -7 11 -11 48 -11 60 0 106 -13 106 -30 0 -6 7 -18
15 -26 8 -9 15 -26 15 -39 0 -14 7 -25 18 -28 9 -3 -45 -5 -120 -6 -135 -1
-138 -1 -138 21 0 12 -2 19 -4 17 -2 -2 -6 -62 -10 -134 -5 -127 -4 -139 8
-82 4 16 13 27 24 28 16 1 16 2 0 6 -22 6 -23 26 -2 44 10 8 14 22 11 39 -7
32 7 60 17 35 5 -14 9 -15 21 -5 11 10 18 9 31 -5 16 -15 18 -15 26 -1 5 9 17
16 26 16 14 0 15 -2 2 -10 -8 -5 -12 -12 -8 -15 3 -3 13 2 23 11 16 16 18 16
27 1 5 -9 18 -17 28 -17 16 0 20 -7 20 -31 0 -28 3 -31 25 -27 14 3 25 1 25
-3 0 -5 -11 -9 -25 -9 -14 0 -25 -3 -25 -8 0 -4 -18 -7 -41 -7 -22 0 -45 -3
-52 -7 -8 -5 -4 -8 10 -8 30 0 54 -11 47 -21 -3 -5 2 -9 10 -9 8 0 17 8 19 18
4 16 7 1 11 -70 2 -24 -2 -28 -26 -28 -15 0 -28 -5 -28 -11 0 -5 4 -8 9 -5 5
4 20 2 33 -3 22 -8 22 -9 -9 -15 -30 -7 -33 -11 -35 -44 l-1 -37 -4 33 c-2 17
-9 32 -15 32 -5 0 -8 -7 -4 -15 3 -9 0 -15 -9 -15 -10 0 -15 -10 -15 -29 0
-28 -1 -28 -71 -35 -78 -7 -102 0 -74 20 14 11 17 23 13 63 -3 28 -1 48 4 45
4 -3 8 0 8 5 0 6 -8 11 -18 11 -14 0 -18 -9 -19 -50 -1 -68 -10 -97 -27 -97
-11 0 -15 10 -14 33 1 22 5 31 15 27 16 -6 17 9 1 25 -10 10 -14 70 -15 220
-2 175 0 209 13 219 10 7 11 13 5 18 -6 3 -11 18 -11 33 0 25 1 25 15 6 8 -10
15 -31 15 -46 0 -15 5 -30 10 -33 6 -3 10 2 10 11 0 10 3 15 6 11 11 -11 32
18 25 33 -4 8 -9 34 -10 56 l-2 41 85 2 86 2 0 -45z m138 32 c16 -16 15 -31
-2 -25 -9 4 -20 -8 -31 -34 -16 -34 -22 -39 -44 -35 -14 2 -32 5 -38 5 -17 1
-16 24 1 66 14 32 18 35 58 35 24 0 49 -5 56 -12z m76 6 c12 -5 13 -9 3 -25
-14 -22 -32 -26 -23 -4 3 8 1 15 -4 15 -6 0 -10 -5 -10 -12 0 -15 -13 -1 -16
17 -2 15 22 20 50 9z m966 -3 c0 -5 -11 -12 -24 -15 -13 -3 -32 -9 -43 -12
-16 -6 -16 -5 2 9 11 8 29 17 40 20 11 2 21 5 23 6 1 0 2 -3 2 -8z m2381 -62
c-8 -21 -10 -22 -16 -6 -10 23 2 54 16 40 6 -6 6 -18 0 -34z m-5102 -14 c13
-20 22 -38 19 -40 -6 -6 -68 61 -68 74 0 19 25 1 49 -34z m2706 35 c-3 -5 -10
-10 -16 -10 -5 0 -9 5 -9 10 0 6 7 10 16 10 8 0 12 -4 9 -10z m-3405 -41 c-6
-11 -15 -17 -20 -14 -6 3 -7 -1 -4 -9 6 -16 -29 -32 -46 -21 -6 4 -22 0 -35
-9 -27 -18 -49 -22 -25 -5 12 9 11 10 -7 6 -18 -4 -20 -2 -11 12 26 42 120 76
132 48 2 -7 5 -4 5 6 1 10 6 15 11 12 7 -4 7 -13 0 -26z m4507 -1 c-3 -7 -5
-2 -5 12 0 14 2 19 5 13 2 -7 2 -19 0 -25z m2304 15 c1 -49 -2 -567 -4 -569
-1 0 -218 23 -482 52 -264 29 -484 54 -490 54 -5 0 58 38 140 84 83 46 188
106 234 133 47 26 116 65 155 86 39 21 85 47 102 58 31 19 308 118 332 119 6
0 12 -8 13 -17z m-4404 -5 c18 -7 33 -14 33 -18 0 -3 -23 -6 -50 -7 -28 -1
-50 -1 -50 2 0 13 14 35 23 35 6 0 26 -5 44 -12z m-2572 -48 c-19 -21 -55 -27
-55 -10 0 12 31 29 54 30 18 0 18 -1 1 -20z m-175 -14 c-42 -28 -103 -49 -127
-44 -26 6 94 67 132 68 l30 0 -35 -24z m2767 12 c-8 -6 -5 -10 11 -14 12 -4
22 -11 22 -18 1 -6 7 0 14 13 7 13 16 19 19 14 4 -6 1 -17 -6 -26 -11 -15 -17
-15 -74 6 -82 30 -87 38 -25 35 29 -1 46 -6 39 -10z m841 -48 c0 -9 -3 -7 -8
5 -5 11 -8 29 -8 40 0 16 2 15 8 -5 4 -14 8 -32 8 -40z m41 20 c0 -10 -2 -11
-6 -2 -2 6 -9 10 -14 6 -11 -6 -11 -2 -3 21 5 13 8 14 15 3 5 -7 8 -20 8 -28z
m-578 -6 c18 -30 19 -38 8 -45 -11 -7 -11 -9 3 -9 10 0 24 -13 33 -30 19 -36
19 -40 0 -40 -8 0 -23 17 -33 38 -11 20 -27 52 -36 69 -15 28 -15 53 -1 53 2
0 13 -16 26 -36z m656 14 c-3 -8 -6 -5 -6 6 -1 11 2 17 5 13 3 -3 4 -12 1 -19z
m153 18 c0 -3 -4 -8 -10 -11 -5 -3 -10 -1 -10 4 0 6 5 11 10 11 6 0 10 -2 10
-4z m-1160 -26 c8 -5 11 -10 5 -10 -5 0 -17 5 -25 10 -8 5 -10 10 -5 10 6 0
17 -5 25 -10z m-2687 -27 c-7 -2 -21 -2 -30 0 -10 3 -4 5 12 5 17 0 24 -2 18
-5z m77 -1 c0 -5 -13 -7 -30 -4 -16 2 -30 6 -30 8 0 2 14 4 30 4 17 0 30 -4
30 -8z m30 -2 c0 -5 -5 -10 -11 -10 -5 0 -7 5 -4 10 3 6 8 10 11 10 2 0 4 -4
4 -10z m120 -15 l55 0 3 -43 3 -42 -35 0 c-26 0 -38 6 -46 21 -7 11 -9 23 -6
27 3 3 6 0 6 -6 0 -7 5 -12 10 -12 21 0 -7 34 -29 35 -22 2 -28 -9 -11 -20 12
-8 13 -25 1 -25 -5 0 -12 12 -15 26 -5 20 -12 25 -26 21 -11 -3 -23 -1 -26 4
-3 5 4 9 15 9 12 0 21 5 21 11 0 5 6 7 12 3 7 -5 38 -8 68 -9z m-136 -17 c-7
-11 -32 -10 -39 2 -3 6 4 9 19 8 13 -1 22 -6 20 -10z m1526 -18 c0 -5 -4 -10
-9 -10 -6 0 -13 5 -16 10 -3 6 1 10 9 10 9 0 16 -4 16 -10z m-5 -30 c3 -5 -3
-10 -14 -10 -12 0 -21 5 -21 10 0 6 6 10 14 10 8 0 18 -4 21 -10z m3728 -32
c16 -17 18 -108 3 -108 -7 0 -13 -20 -14 -47 -1 -27 -3 -59 -6 -73 -2 -14 -5
-30 -5 -37 -1 -6 -10 -11 -20 -10 -11 0 -17 5 -14 10 3 4 -14 6 -36 3 -22 -2
-43 0 -47 5 -3 5 -10 9 -16 9 -7 0 -6 -6 2 -15 8 -9 9 -15 2 -15 -6 0 -13 4
-16 9 -4 5 -30 13 -59 17 -29 4 -43 10 -32 12 11 2 31 12 45 21 25 17 60 17
60 0 0 -5 8 -9 18 -8 10 0 12 3 5 6 -19 7 -16 23 5 23 15 1 15 2 -3 16 -11 8
-26 12 -35 9 -12 -5 -13 -4 -2 7 10 10 17 10 32 0 29 -18 38 -15 36 11 -1 18
-6 23 -20 19 -14 -4 -17 0 -14 14 2 11 11 18 22 17 14 -1 16 4 12 23 -5 19 -2
26 16 33 13 6 32 21 43 35 24 30 23 29 38 14z m-4153 -12 c-1 -5 4 -12 12 -17
9 -6 10 -11 2 -19 -9 -9 -16 -6 -28 11 -20 29 -20 41 0 37 8 -2 14 -7 14 -12z
m342 3 l86 2 0 -36 c0 -34 -1 -35 -41 -37 -23 0 -46 -2 -52 -3 -5 -2 -22 -3
-37 -4 -17 -1 -28 -7 -28 -15 0 -17 -27 -28 -50 -21 -10 3 -29 1 -43 -4 -24
-9 -30 -6 -70 40 -31 36 -43 57 -39 71 5 19 10 20 96 13 50 -5 130 -7 178 -6z
m748 -9 c0 -5 -5 -10 -11 -10 -5 0 -7 5 -4 10 3 6 8 10 11 10 2 0 4 -4 4 -10z
m-1115 -30 c3 -5 1 -10 -4 -10 -6 0 -11 5 -11 10 0 6 2 10 4 10 3 0 8 -4 11
-10z m2129 -15 c7 -19 -14 -19 -40 0 -18 14 -18 14 7 15 15 0 29 -7 33 -15z
m-1069 -9 c12 -12 11 -15 -5 -19 -15 -4 -20 0 -20 14 0 23 7 24 25 5z m-945
-25 c20 -30 20 -30 0 -28 -11 1 -20 5 -20 10 0 4 -4 5 -10 2 -6 -4 -9 5 -8 19
3 34 12 33 38 -3z m-120 -1 c8 -15 6 -21 -9 -30 -24 -12 -31 -2 -20 28 10 27
15 28 29 2z m2106 5 c16 -8 22 -15 14 -16 -12 0 -11 -2 2 -7 11 -5 14 -12 9
-20 -7 -12 -12 -12 -30 0 -12 7 -19 19 -16 25 2 7 0 13 -5 13 -6 0 -10 -4 -10
-10 0 -5 -4 -10 -9 -10 -6 0 -9 9 -8 20 2 24 15 25 53 5z m114 -140 c0 -6 -15
-11 -32 -11 -25 1 -32 5 -30 18 2 15 -1 16 -29 6 -26 -9 -34 -8 -43 4 -6 8
-22 18 -36 21 -33 9 -66 35 -56 44 4 4 12 0 17 -10 6 -9 17 -17 24 -17 22 0
18 31 -5 37 -11 3 -20 9 -20 14 0 5 47 -15 105 -43 58 -29 105 -57 105 -63z
m-290 39 c0 -8 -4 -12 -10 -9 -5 3 -10 1 -10 -5 0 -6 -5 -8 -12 -4 -7 5 -5 11
7 21 24 17 25 16 25 -3z m400 4 c0 -6 3 -8 6 -5 4 3 16 1 28 -5 11 -7 25 -11
30 -10 5 2 4 -3 -3 -11 -20 -25 -62 -26 -108 -4 -46 23 -53 33 -25 40 34 9 72
7 72 -5z m-300 -24 c0 -2 -7 -4 -15 -4 -8 0 -15 4 -15 10 0 5 7 7 15 4 8 -4
15 -8 15 -10z m2247 -44 c2 -21 -21 -28 -32 -10 -3 6 -1 10 5 10 6 0 8 5 5 10
-3 6 0 10 7 10 8 0 14 -9 15 -20z m1187 -44 c274 -30 500 -56 501 -58 2 -2 1
-15 -2 -30 -4 -23 -9 -26 -32 -22 -14 2 -237 27 -496 54 -258 27 -490 52 -515
56 l-44 6 39 24 c22 13 42 24 45 24 3 0 230 -24 504 -54z m-2271 37 c-24 -2
-43 -8 -43 -14 0 -5 -5 -9 -11 -9 -5 0 -8 4 -4 9 3 5 -3 12 -12 14 -10 3 11 4
47 4 44 0 51 -2 23 -4z m1326 -10 c0 -11 -3 -13 -6 -5 -2 6 -9 10 -13 7 -5 -3
-11 -1 -15 5 -3 5 3 10 14 10 14 0 21 -6 20 -17z m-252 -55 c-3 -7 -5 -2 -5
12 0 14 2 19 5 13 2 -7 2 -19 0 -25z m178 -120 c11 -11 -139 -17 -152 -6 -9 7
-13 7 -13 -1 0 -6 -4 -11 -10 -11 -5 0 -10 9 -10 21 0 11 4 18 9 14 5 -3 12
-2 15 3 5 8 151 -10 161 -20z"/>
<path d="M6717 3364 c-9 -10 4 -34 19 -34 8 0 14 9 14 20 0 19 -19 27 -33 14z"/>
<path d="M6720 3310 c18 -12 30 -13 30 -2 0 4 -10 9 -22 9 -18 2 -20 0 -8 -7z"/>
<path d="M6780 3310 c-13 -8 -12 -10 3 -10 9 0 17 5 17 10 0 12 -1 12 -20 0z"/>
<path d="M6330 3175 c-7 -14 -17 -25 -22 -25 -4 0 -8 -5 -8 -11 0 -5 5 -7 11
-3 6 3 14 2 18 -3 3 -6 16 -13 28 -17 17 -5 22 -4 18 6 -5 14 2 26 27 46 13
11 16 11 14 0 -1 -7 -5 -18 -9 -24 -7 -12 40 -30 51 -19 3 3 -1 5 -9 5 -8 0
-15 12 -16 30 -1 18 2 28 7 25 6 -4 10 -1 10 4 0 7 -22 11 -53 11 -47 0 -55
-3 -67 -25z m25 -23 c-3 -3 -11 0 -18 7 -9 10 -8 11 6 5 10 -3 15 -9 12 -12z"/>
<path d="M6477 3143 c-12 -12 -7 -21 14 -26 12 -3 18 -3 15 0 -3 4 -1 12 5 20
9 10 7 13 -8 13 -11 0 -23 -3 -26 -7z"/>
<path d="M6560 3090 c0 -5 5 -10 11 -10 5 0 7 5 4 10 -3 6 -8 10 -11 10 -2 0
-4 -4 -4 -10z"/>
<path d="M6600 3080 c0 -12 7 -20 18 -20 14 0 15 2 2 10 -10 6 -11 10 -2 10 6
0 12 5 12 10 0 6 -7 10 -15 10 -8 0 -15 -9 -15 -20z"/>
<path d="M6335 3040 c-16 -7 -17 -9 -3 -9 9 -1 20 4 23 9 7 11 7 11 -20 0z"/>
<path d="M6596 3019 c3 -5 0 -10 -5 -10 -6 -1 -15 -3 -21 -4 -5 -1 -13 -3 -16
-4 -9 -2 17 -31 27 -31 5 0 6 6 3 14 -4 10 0 14 12 12 10 -2 21 -11 25 -22 6
-15 8 -12 8 12 1 24 -4 33 -19 37 -11 3 -18 1 -14 -4z"/>
<path d="M6317 3002 c-9 -2 -15 -8 -12 -13 4 -5 1 -9 -5 -9 -7 0 -5 -6 4 -15
8 -8 21 -15 28 -15 7 0 5 5 -6 12 -19 10 -19 11 -1 24 21 16 18 22 -8 16z"/>
<path d="M6410 3003 c0 -6 -11 -8 -25 -5 -14 2 -25 0 -25 -6 0 -6 -8 -13 -17
-15 -16 -4 -16 -5 -1 -6 11 -1 14 -7 11 -20 -3 -14 2 -20 24 -26 15 -3 31 -12
35 -18 5 -8 8 -6 8 6 0 9 7 17 16 17 14 0 14 3 4 15 -7 8 -19 15 -27 15 -9 0
-13 -6 -9 -15 3 -8 1 -15 -4 -15 -6 0 -10 7 -10 15 0 8 -5 15 -11 15 -5 0 -7
5 -4 11 4 6 13 8 21 5 8 -3 14 0 14 7 1 8 5 6 13 -4 7 -8 20 -18 29 -22 14 -5
17 -1 16 17 -1 15 -7 22 -15 19 -7 -3 -20 0 -28 7 -8 7 -15 8 -15 3z"/>
<path d="M6488 2953 c7 -3 16 -2 19 1 4 3 -2 6 -13 5 -11 0 -14 -3 -6 -6z"/>
<path d="M6602 2926 c13 -14 28 -12 28 5 0 5 -9 9 -20 9 -17 0 -19 -2 -8 -14z"/>
<path d="M6314 2868 c-5 -7 -3 -8 6 -3 9 5 10 2 6 -12 -6 -17 -2 -19 25 -15
24 4 36 0 46 -14 11 -15 15 -16 22 -5 5 7 14 11 20 7 7 -5 9 -1 5 8 -3 9 -1
16 6 16 6 0 8 5 5 10 -4 7 -13 6 -26 -1 -15 -8 -24 -7 -35 2 -13 10 -17 10
-24 -1 -7 -11 -11 -10 -25 3 -20 20 -22 20 -31 5z"/>
<path d="M6408 2873 c7 -3 16 -2 19 1 4 3 -2 6 -13 5 -11 0 -14 -3 -6 -6z"/>
<path d="M6470 2861 c0 -5 7 -12 16 -15 21 -8 21 -8 21 9 0 8 -9 15 -19 15
-10 0 -18 -4 -18 -9z"/>
<path d="M6348 2813 c6 -2 18 -2 25 0 6 3 1 5 -13 5 -14 0 -19 -2 -12 -5z"/>
<path d="M6295 2720 c3 -5 12 -7 20 -3 21 7 19 13 -6 13 -11 0 -18 -4 -14 -10z"/>
<path d="M6364 2721 c5 -8 56 -3 56 5 0 2 -14 4 -31 4 -16 0 -28 -4 -25 -9z"/>
<path d="M2140 3210 c0 -5 5 -10 10 -10 6 0 10 5 10 10 0 6 -4 10 -10 10 -5 0
-10 -4 -10 -10z"/>
<path d="M2163 2883 c-23 -31 -40 -60 -37 -62 3 -3 9 1 14 9 4 8 22 32 39 54
27 33 38 56 28 56 -1 0 -21 -26 -44 -57z"/>
<path d="M2175 2850 c-16 -16 -24 -30 -19 -30 6 0 20 14 32 30 13 17 21 30 19
30 -2 0 -16 -13 -32 -30z"/>
<path d="M2150 2760 c0 -5 5 -10 11 -10 5 0 7 5 4 10 -3 6 -8 10 -11 10 -2 0
-4 -4 -4 -10z"/>
<path d="M5095 3190 c3 -5 2 -10 -3 -10 -5 0 -17 -12 -27 -26 -16 -25 -16 -26
4 -19 12 3 21 2 21 -3 0 -5 9 -12 19 -15 13 -3 18 0 15 8 -6 15 24 47 36 40 5
-3 7 -12 4 -19 -6 -15 20 -27 67 -30 19 -1 29 3 32 16 4 13 0 18 -14 18 -10 0
-19 -4 -19 -10 0 -5 -11 -10 -25 -10 -17 0 -23 4 -19 14 3 8 0 17 -5 21 -17
10 -3 25 16 18 11 -4 14 -3 9 5 -4 7 -31 12 -62 12 -34 0 -53 -4 -49 -10z"/>
<path d="M5095 3040 c-17 -8 -17 -9 7 -7 15 1 24 5 22 9 -3 4 -6 8 -7 7 -1 0
-11 -4 -22 -9z"/>
<path d="M4990 3006 c0 -2 7 -7 16 -10 8 -3 12 -2 9 4 -6 10 -25 14 -25 6z"/>
<path d="M5170 3000 c0 -20 11 -35 32 -43 14 -5 17 -1 16 17 -2 16 -7 22 -16
18 -8 -3 -18 1 -23 9 -7 12 -9 12 -9 -1z"/>
<path d="M5308 2993 c7 -3 16 -2 19 1 4 3 -2 6 -13 5 -11 0 -14 -3 -6 -6z"/>
<path d="M5524 2961 c3 -5 15 -7 26 -4 28 7 25 13 -6 13 -14 0 -23 -4 -20 -9z"/>
<path d="M5248 2953 c7 -3 16 -2 19 1 4 3 -2 6 -13 5 -11 0 -14 -3 -6 -6z"/>
<path d="M5235 2920 c3 -5 8 -10 11 -10 2 0 4 5 4 10 0 6 -5 10 -11 10 -5 0
-7 -4 -4 -10z"/>
<path d="M3406 3005 c4 -8 13 -15 21 -15 13 0 13 3 3 15 -7 8 -16 15 -21 15
-5 0 -6 -7 -3 -15z"/>
<path d="M3405 2940 c-3 -5 -1 -10 4 -10 6 0 11 5 11 10 0 6 -2 10 -4 10 -3 0
-8 -4 -11 -10z"/>
<path d="M2938 3123 c7 -3 16 -2 19 1 4 3 -2 6 -13 5 -11 0 -14 -3 -6 -6z"/>
<path d="M1528 2933 c7 -3 16 -2 19 1 4 3 -2 6 -13 5 -11 0 -14 -3 -6 -6z"/>
<path d="M1048 2833 c6 -2 18 -2 25 0 6 3 1 5 -13 5 -14 0 -19 -2 -12 -5z"/>
<path d="M1108 2833 c12 -2 30 -2 40 0 9 3 -1 5 -23 4 -22 0 -30 -2 -17 -4z"/>
<path d="M1413 2833 c9 -2 23 -2 30 0 6 3 -1 5 -18 5 -16 0 -22 -2 -12 -5z"/>
<path d="M1327 2783 c-4 -3 -7 -11 -7 -17 0 -6 5 -5 12 2 6 6 9 14 7 17 -3 3
-9 2 -12 -2z"/>
<path d="M1382 2768 c-15 -15 -15 -28 -1 -28 11 0 39 24 39 34 0 11 -26 6 -38
-6z"/>
<path d="M1328 2743 c6 -2 18 -2 25 0 6 3 1 5 -13 5 -14 0 -19 -2 -12 -5z"/>
<path d="M3840 2883 c-43 -8 -47 -23 -7 -23 35 0 37 -2 37 -33 0 -26 4 -33 21
-33 18 0 18 2 4 12 -12 9 -13 17 -6 36 9 24 -2 51 -18 47 -4 -1 -17 -4 -31 -6z"/>
<path d="M3801 2837 c-8 -11 -6 -18 10 -33 20 -18 20 -18 13 11 -9 38 -9 38
-23 22z"/>
<path d="M2157 2679 c8 -8 16 -8 30 0 16 9 14 10 -11 11 -22 0 -27 -3 -19 -11z"/>
<path d="M2082 2580 c0 -14 2 -19 5 -12 2 6 2 18 0 25 -3 6 -5 1 -5 -13z"/>
<path d="M959 2673 c-13 -17 -13 -17 6 -3 11 8 22 16 24 17 2 2 0 3 -6 3 -6 0
-17 -8 -24 -17z"/>
<path d="M1150 2660 l-35 -30 48 26 c26 14 47 28 47 30 0 13 -29 0 -60 -26z"/>
<path d="M1290 2590 c-9 -6 -10 -10 -3 -10 6 0 15 5 18 10 8 12 4 12 -15 0z"/>
<path d="M6865 2660 c-3 -5 -1 -10 4 -10 6 0 11 5 11 10 0 6 -2 10 -4 10 -3 0
-8 -4 -11 -10z"/>
<path d="M6725 2600 c-3 -5 1 -10 10 -10 9 0 13 5 10 10 -3 6 -8 10 -10 10 -2
0 -7 -4 -10 -10z"/>
<path d="M6738 2563 c7 -3 16 -2 19 1 4 3 -2 6 -13 5 -11 0 -14 -3 -6 -6z"/>
<path d="M6878 2163 c7 -3 16 -2 19 1 4 3 -2 6 -13 5 -11 0 -14 -3 -6 -6z"/>
<path d="M5308 2483 c7 -3 16 -2 19 1 4 3 -2 6 -13 5 -11 0 -14 -3 -6 -6z"/>
<path d="M5628 2403 c7 -3 16 -2 19 1 4 3 -2 6 -13 5 -11 0 -14 -3 -6 -6z"/>
<path d="M5635 2330 c-3 -5 -1 -10 4 -10 6 0 11 5 11 10 0 6 -2 10 -4 10 -3 0
-8 -4 -11 -10z"/>
<path d="M5100 2250 c-12 -7 -12 -12 -2 -22 9 -9 15 -9 24 0 16 16 -2 34 -22
22z m20 -10 c0 -5 -5 -10 -11 -10 -5 0 -7 5 -4 10 3 6 8 10 11 10 2 0 4 -4 4
-10z"/>
<path d="M5245 2229 c-4 -6 -5 -12 -2 -15 2 -3 7 2 10 11 7 17 1 20 -8 4z"/>
<path d="M5053 2195 c0 -8 4 -15 7 -15 4 0 13 7 20 15 10 12 9 15 -7 15 -11 0
-20 -7 -20 -15z"/>
<path d="M5116 2198 c3 -4 -2 -8 -10 -8 -9 0 -16 -5 -16 -11 0 -5 4 -8 9 -5 5
3 11 -1 15 -9 3 -8 0 -15 -6 -15 -18 0 1 -14 24 -17 29 -5 35 -12 19 -23 -10
-5 -6 -8 12 -7 25 2 40 17 17 17 -5 0 -10 5 -10 10 0 6 8 10 17 10 25 0 0 22
-26 24 -12 0 -20 6 -19 11 2 6 7 9 11 7 5 -1 7 3 5 9 -2 7 -14 13 -26 14 -11
1 -19 -2 -16 -7z"/>
<path d="M5170 2203 c1 -21 21 -36 56 -39 38 -4 38 -4 14 9 -14 7 -35 19 -47
26 -13 6 -23 8 -23 4z"/>
<path d="M5308 2203 c7 -3 16 -2 19 1 4 3 -2 6 -13 5 -11 0 -14 -3 -6 -6z"/>
<path d="M4820 2169 c0 -5 11 -9 25 -9 14 0 25 2 25 4 0 2 -11 6 -25 8 -14 3
-25 1 -25 -3z"/>
<path d="M4788 2163 c7 -3 16 -2 19 1 4 3 -2 6 -13 5 -11 0 -14 -3 -6 -6z"/>
<path d="M5528 2163 c6 -2 18 -2 25 0 6 3 1 5 -13 5 -14 0 -19 -2 -12 -5z"/>
<path d="M5235 2130 c3 -5 8 -10 11 -10 2 0 4 5 4 10 0 6 -5 10 -11 10 -5 0
-7 -4 -4 -10z"/>
<path d="M5105 2100 c4 -6 11 -8 16 -5 14 9 11 15 -7 15 -8 0 -12 -5 -9 -10z"/>
<path d="M5355 2080 c3 -5 12 -7 20 -3 21 7 19 13 -6 13 -11 0 -18 -4 -14 -10z"/>
<path d="M6208 2563 c7 -3 16 -2 19 1 4 3 -2 6 -13 5 -11 0 -14 -3 -6 -6z"/>
<path d="M4420 2600 c-8 -5 -11 -12 -7 -16 4 -4 13 -2 19 4 15 15 7 24 -12 12z"/>
<path d="M4448 2526 c-69 -35 -127 -73 -96 -63 9 3 19 1 22 -6 2 -7 5 -4 5 6
1 15 12 22 34 18 4 0 7 3 7 8 0 5 21 20 46 32 25 13 48 27 50 31 7 12 5 11
-68 -26z"/>
<path d="M3728 2323 c7 -3 16 -2 19 1 4 3 -2 6 -13 5 -11 0 -14 -3 -6 -6z"/>
<path d="M3780 2321 c0 -5 7 -14 15 -21 13 -10 15 -9 15 9 0 12 -6 21 -15 21
-8 0 -15 -4 -15 -9z"/>
<path d="M3678 2243 c6 -2 18 -2 25 0 6 3 1 5 -13 5 -14 0 -19 -2 -12 -5z"/>
<path d="M3610 2030 c0 -13 7 -20 18 -20 11 0 18 7 18 20 0 13 -7 20 -18 20
-11 0 -18 -7 -18 -20z"/>
<path d="M3666 2034 c-10 -26 -7 -34 14 -34 15 0 20 7 20 25 0 28 -24 34 -34
9z"/>
<path d="M6488 2163 c7 -3 16 -2 19 1 4 3 -2 6 -13 5 -11 0 -14 -3 -6 -6z"/>
<path d="M6480 2130 c0 -5 5 -10 10 -10 6 0 10 5 10 10 0 6 -4 10 -10 10 -5 0
-10 -4 -10 -10z"/>
<path d="M4448 2163 c7 -3 16 -2 19 1 4 3 -2 6 -13 5 -11 0 -14 -3 -6 -6z"/>
<path d="M3631 4544 c0 -11 3 -14 6 -6 3 7 2 16 -1 19 -3 4 -6 -2 -5 -13z"/>
<path d="M3512 4230 c0 -14 2 -19 5 -12 2 6 2 18 0 25 -3 6 -5 1 -5 -13z"/>
<path d="M3510 3965 c0 -8 5 -15 10 -15 6 0 10 7 10 15 0 8 -4 15 -10 15 -5 0
-10 -7 -10 -15z"/>
<path d="M1537 3588 c-274 -204 -496 -372 -494 -375 4 -3 971 709 1002 738 6
6 6 9 0 9 -6 -1 -234 -168 -508 -372z"/>
<path d="M3510 3900 c0 -5 5 -10 10 -10 6 0 10 5 10 10 0 6 -4 10 -10 10 -5 0
-10 -4 -10 -10z"/>
<path d="M3510 3860 c0 -5 5 -10 10 -10 6 0 10 5 10 10 0 6 -4 10 -10 10 -5 0
-10 -4 -10 -10z"/>
<path d="M3512 3720 c0 -19 2 -27 5 -17 2 9 2 25 0 35 -3 9 -5 1 -5 -18z"/>
<path d="M6620 3740 c0 -5 5 -10 11 -10 5 0 7 5 4 10 -3 6 -8 10 -11 10 -2 0
-4 -4 -4 -10z"/>
<path d="M3920 3679 c0 -5 5 -7 10 -4 6 3 10 8 10 11 0 2 -4 4 -10 4 -5 0 -10
-5 -10 -11z"/>
<path d="M3512 3625 c0 -16 2 -22 5 -12 2 9 2 23 0 30 -3 6 -5 -1 -5 -18z"/>
<path d="M6660 3555 c0 -18 5 -25 20 -25 24 0 28 35 4 44 -23 9 -24 8 -24 -19z"/>
<path d="M6733 3563 c-18 -7 -16 -33 2 -33 8 0 15 2 15 4 0 2 3 11 6 20 6 16
0 19 -23 9z"/>
<path d="M3738 3483 c-26 -7 -24 -58 2 -60 16 -1 20 4 20 33 0 19 -1 33 -2 33
-2 -1 -11 -3 -20 -6z"/>
<path d="M3677 3473 c-15 -14 -7 -43 12 -43 14 0 17 6 13 25 -4 25 -13 31 -25
18z"/>
<path d="M3628 3393 c-3 -72 4 -99 24 -87 4 3 6 19 4 37 -3 18 -5 53 -5 80 -1
77 -19 53 -23 -30z"/>
<path d="M3670 3380 c0 -20 5 -30 15 -30 10 0 15 10 15 30 0 20 -5 30 -15 30
-10 0 -15 -10 -15 -30z"/>
<path d="M3722 3380 c0 -23 4 -30 19 -30 14 0 19 7 19 30 0 23 -5 30 -18 30
-14 0 -19 -8 -20 -30z"/>
<path d="M3570 3370 c0 -23 4 -30 20 -30 16 0 20 7 20 30 0 23 -4 30 -20 30
-16 0 -20 -7 -20 -30z"/>
<path d="M3672 3323 c5 -26 38 -29 38 -4 0 15 -6 21 -21 21 -14 0 -19 -5 -17
-17z"/>
<path d="M3560 3180 c0 -16 2 -30 4 -30 2 0 6 14 8 30 3 17 1 30 -4 30 -4 0
-8 -13 -8 -30z"/>
<path d="M3695 2980 c-3 -5 -1 -10 5 -10 7 0 10 -7 6 -15 -3 -8 -1 -15 4 -15
13 0 13 37 1 45 -5 3 -12 1 -16 -5z"/>
<path d="M415 2710 l-160 -6 155 -1 c85 -1 178 2 205 7 l50 7 -45 0 c-25 -1
-117 -4 -205 -7z"/>
<path d="M698 2713 c7 -3 16 -2 19 1 4 3 -2 6 -13 5 -11 0 -14 -3 -6 -6z"/>
<path d="M163 2703 c9 -2 25 -2 35 0 9 3 1 5 -18 5 -19 0 -27 -2 -17 -5z"/>
<path d="M9740 2669 c0 -5 71 -9 158 -8 86 0 153 2 147 4 -25 8 -305 12 -305
4z"/>
<path d="M8695 2364 c-207 -182 -256 -227 -251 -232 5 -4 339 290 366 322 24
30 4 14 -115 -90z"/>
<path d="M8637 2248 c-114 -105 -205 -193 -203 -196 3 -2 92 76 198 175 179
167 226 213 217 213 -2 0 -97 -86 -212 -192z"/>
<path d="M2041 2024 c0 -11 3 -14 6 -6 3 7 2 16 -1 19 -3 4 -6 -2 -5 -13z"/>
<path d="M3511 1802 c-1 -36 1 -41 13 -30 8 7 10 18 6 23 -4 6 -10 19 -13 30
-2 11 -5 1 -6 -23z"/>
<path d="M3513 1680 c0 -25 2 -35 4 -22 2 12 2 32 0 45 -2 12 -4 2 -4 -23z"/>
<path d="M3808 1713 c6 -2 18 -2 25 0 6 3 1 5 -13 5 -14 0 -19 -2 -12 -5z"/>
</g>
</svg>
